<?xml version="1.0" encoding="utf-8"?>
<!-- Generator: Adobe Illustrator 27.5.0, SVG Export Plug-In . SVG Version: 6.00 Build 0)  -->
<svg version="1.1" xmlns="http://www.w3.org/2000/svg" xmlns:xlink="http://www.w3.org/1999/xlink" x="0px" y="0px"
	 viewBox="0 0 500 500" style="enable-background:new 0 0 500 500;" xml:space="preserve">
<g id="Floor">
	<g id="Floor_00000161597660978674058060000013908771350000061872_">
		<path id="Floor_00000028322576480296763000000008509234787177354399_" style="fill:#BA68C8;" d="M77.661,249.439
			c-95.177,54.951-95.175,144.044,0.005,198.995c95.18,54.951,249.496,54.951,344.674,0c95.178-54.951,95.175-144.044-0.005-198.995
			C327.154,194.488,172.838,194.488,77.661,249.439z"/>
		<path id="Floor_00000159448354259755211210000007713866331796083630_" style="opacity:0.6;fill:#FFFFFF;" d="M77.661,249.439
			c-95.177,54.951-95.175,144.044,0.005,198.995c95.18,54.951,249.496,54.951,344.674,0c95.178-54.951,95.175-144.044-0.005-198.995
			C327.154,194.488,172.838,194.488,77.661,249.439z"/>
	</g>
	<path style="fill:#F0F0F0;" d="M453.117,426.746c-7.13-3.849-15.109-8.158-23.615-12.826
		c-40.186-22.519-81.208-44.896-116.223-75.212c-14.098-12.828-18.488-30.672-20.505-53.208
		c-1.801-20.116-2.525-65.306-2.667-75.362c-26.541-2.543-53.67-2.544-80.211-0.001c-0.142,10.054-0.866,55.246-2.667,75.363
		c-2.018,22.536-6.407,40.379-20.504,53.207c-35.011,30.315-76.044,52.698-116.225,75.214c-8.506,4.668-16.484,8.977-23.614,12.825
		c8.824,7.66,19.079,14.934,30.779,21.689c8.065,4.656,16.563,8.908,25.404,12.775c0.478-0.264,0.948-0.519,1.428-0.786
		c38.423-21.34,87.325-54.662,120.712-77.123c0.054-0.036,0.11-0.073,0.164-0.109c9.174-6.075,16.933-8.884,24.267-9.033
		c0.12,0,0.24-0.004,0.36-0.003c0.12-0.001,0.24,0.002,0.36,0.003c7.335,0.15,15.094,2.958,24.267,9.033
		c0.054,0.036,0.11,0.073,0.163,0.109c33.376,22.452,82.255,55.759,120.672,77.1c0.495,0.275,0.979,0.537,1.47,0.809
		c8.842-3.867,17.34-8.119,25.405-12.775C434.04,441.679,444.293,434.406,453.117,426.746z"/>
</g>
<g id="Shadows">
	<polygon id="Shadow_00000150815242262216404830000004707970082272451461_" style="opacity:0.3;fill:#BA68C8;" points="
		375.549,348.501 365.847,354.166 432.96,392.854 442.672,387.194 	"/>
	<polygon id="Shadow_00000158006945613492766570000015069478549364879264_" style="opacity:0.3;fill:#BA68C8;" points="
		123.9,348.501 133.602,354.166 66.49,392.854 56.777,387.194 	"/>
	<path id="Shadow_00000168098816573502603400000013742781021567487890_" style="opacity:0.15;" d="M198.267,352.819
		c-28.236,16.486-28.235,43.215,0,59.7c28.237,16.486,74.017,16.486,102.253,0c28.235-16.485,28.235-43.214-0.001-59.699
		C272.283,336.334,226.503,336.334,198.267,352.819z"/>
</g>
<g id="Direction_Sign_2">
	<g id="Sign">
		<g>
			<g id="XMLID_938_">
				<polygon id="XMLID_795_" style="fill:#37474F;" points="405.228,222.397 410.216,219.518 410.217,371.216 405.229,374.096 				
					"/>
				<g>
					<polygon id="XMLID_792_" style="fill:#455A64;" points="397.746,369.776 405.229,374.096 405.228,222.397 403.416,221.351 
						402.809,227.609 402.189,220.643 397.746,218.077 					"/>
					<polygon style="fill:#263238;" points="410.217,261.117 410.217,265.863 405.229,268.746 405.229,264.001 					"/>
					<polygon style="fill:#37474F;" points="397.741,259.677 397.741,264.423 405.229,268.746 405.229,264.001 					"/>
					<polygon id="XMLID_771_" style="fill:#263238;" points="403.416,221.351 402.189,220.643 402.809,227.609 					"/>
				</g>
				<polygon style="fill:#263238;" points="410.216,219.518 402.734,215.198 397.746,218.077 405.228,222.397 				"/>
				<g style="opacity:0.15;">
					<polygon points="410.217,301.597 405.229,304.477 405.23,311.473 410.217,308.594 					"/>
				</g>
				<g id="XMLID_939_" style="opacity:0.15;">
					<polygon points="405.229,304.477 397.746,300.157 397.746,307.154 405.23,311.473 					"/>
				</g>
			</g>
			<g>
				<g id="XMLID_873_">
					<polygon id="XMLID_902_" style="fill:#455A64;" points="367.208,242.658 434.206,281.303 434.206,255.248 376.369,221.891 
						375.472,228.149 374.933,221.063 367.208,216.602 355.924,223.117 					"/>
					<polygon id="XMLID_640_" style="fill:#263238;" points="376.369,221.891 375.651,221.478 374.933,221.063 375.472,228.149 
											"/>
					<polygon id="XMLID_884_" style="opacity:0.2;fill:#FFFFFF;" points="376.369,221.891 433.279,255.943 434.206,281.303 
						434.206,255.248 					"/>
					<polygon id="XMLID_882_" style="fill:#37474F;" points="434.206,259.955 429.167,258.459 434.206,262.573 					"/>
					<polygon id="XMLID_880_" style="fill:#37474F;" points="439.557,278.189 434.206,281.303 434.206,255.248 439.557,252.074 
											"/>
					<polygon style="fill:#263238;" points="434.206,255.248 439.557,252.074 372.642,213.477 367.208,216.602 					"/>
					<polygon id="XMLID_00000009567487797026120270000010005154490934316990_" style="fill:#37474F;" points="434.206,259.955 
						435.634,260.462 434.206,262.573 					"/>
					<polygon id="XMLID_876_" style="fill:#263238;" points="435.634,260.462 434.206,261.287 429.167,258.459 434.206,262.573 
											"/>
					<polygon id="XMLID_874_" style="fill:#37474F;" points="374.933,221.063 375.651,221.478 375.472,228.149 					"/>
				</g>
				<g id="XMLID_844_">
					<polygon style="fill:#455A64;" points="445.578,317.626 434.294,298.082 367.182,259.393 367.182,285.449 374.907,289.909 
						375.445,283.444 376.342,290.738 434.294,324.137 434.294,324.138 					"/>
					<polygon id="XMLID_578_" style="fill:#263238;" points="376.342,290.738 375.376,288.517 374.907,289.909 375.445,283.444 
											"/>
					<polygon id="XMLID_577_" style="opacity:0.2;fill:#FFFFFF;" points="376.342,264.682 433.366,298.776 445.578,317.626 
						434.294,298.082 					"/>
					
						<rect id="XMLID_484_" x="439.524" y="295.031" transform="matrix(0.8668 -0.4987 0.4987 0.8668 -93.7915 261.5418)" style="fill:#37474F;" width="6.175" height="22.565"/>
					<g>
						<polygon style="fill:#263238;" points="439.833,307.675 436.793,310.568 440.668,309.122 444.382,307.045 						"/>
						<polygon style="fill:#37474F;" points="436.793,310.568 440.232,308.494 444.382,307.045 440.668,309.122 						"/>
					</g>
					<polyline id="XMLID_478_" style="fill:#263238;" points="434.294,298.082 439.644,295.003 372.522,256.31 367.182,259.393 
											"/>
					<polygon id="XMLID_845_" style="fill:#37474F;" points="374.907,289.909 375.376,288.517 375.445,283.444 					"/>
				</g>
			</g>
		</g>
		<g>
			<path style="fill:#FAFAFA;" d="M386.76,234.704c0.208-0.113,0.436-0.199,0.681-0.261c0.245-0.062,0.509-0.087,0.79-0.079
				c0.282,0.009,0.585,0.064,0.909,0.165c0.324,0.1,0.676,0.261,1.053,0.478c0.53,0.306,1.007,0.675,1.434,1.109
				c0.425,0.433,0.787,0.911,1.086,1.434c0.298,0.521,0.528,1.075,0.689,1.659c0.161,0.586,0.241,1.178,0.241,1.78
				c0,0.571-0.059,1.032-0.178,1.38c-0.118,0.349-0.267,0.625-0.448,0.828c-0.18,0.205-0.379,0.355-0.596,0.457
				c-0.217,0.1-0.423,0.19-0.617,0.27c-0.194,0.078-0.363,0.17-0.507,0.276c-0.144,0.106-0.236,0.262-0.275,0.472l-0.236,1.442
				l-1.792-1.035l-0.187-1.922c-0.045-0.394-0.017-0.699,0.085-0.914c0.102-0.217,0.241-0.384,0.419-0.503
				c0.178-0.119,0.375-0.215,0.595-0.288c0.22-0.072,0.426-0.169,0.618-0.285c0.191-0.12,0.354-0.281,0.485-0.487
				c0.133-0.204,0.199-0.502,0.199-0.893c0-0.451-0.111-0.874-0.334-1.27c-0.223-0.395-0.528-0.704-0.918-0.93
				c-0.298-0.171-0.548-0.275-0.747-0.307c-0.201-0.034-0.372-0.041-0.517-0.023c-0.144,0.019-0.269,0.04-0.376,0.06
				c-0.107,0.021-0.214,0-0.321-0.062c-0.242-0.139-0.423-0.383-0.541-0.728L386.76,234.704z M388.316,248.757
				c0-0.271,0.038-0.501,0.114-0.69c0.076-0.188,0.18-0.331,0.313-0.428c0.133-0.096,0.289-0.143,0.47-0.139
				c0.181,0.003,0.377,0.064,0.591,0.188c0.209,0.12,0.404,0.285,0.584,0.49c0.18,0.205,0.338,0.433,0.474,0.685
				c0.136,0.251,0.241,0.515,0.317,0.792s0.114,0.551,0.114,0.821c0,0.271-0.038,0.503-0.114,0.694
				c-0.076,0.193-0.182,0.337-0.317,0.431c-0.136,0.094-0.294,0.138-0.474,0.133c-0.18-0.007-0.375-0.071-0.584-0.191
				c-0.214-0.124-0.41-0.286-0.591-0.487c-0.181-0.203-0.337-0.428-0.47-0.678c-0.133-0.25-0.236-0.514-0.313-0.794
				C388.354,249.303,388.316,249.027,388.316,248.757z"/>
			<path style="fill:#FAFAFA;" d="M394.733,239.307c0.208-0.113,0.436-0.2,0.68-0.262c0.245-0.062,0.509-0.087,0.791-0.078
				c0.281,0.008,0.584,0.063,0.909,0.165c0.323,0.099,0.675,0.26,1.052,0.477c0.53,0.306,1.007,0.675,1.434,1.109
				c0.425,0.433,0.787,0.911,1.086,1.434c0.299,0.522,0.528,1.075,0.689,1.66c0.16,0.585,0.24,1.177,0.24,1.779
				c0,0.571-0.059,1.032-0.177,1.381c-0.119,0.348-0.269,0.624-0.448,0.829c-0.181,0.203-0.379,0.355-0.597,0.455
				c-0.217,0.1-0.423,0.19-0.617,0.27c-0.193,0.08-0.363,0.171-0.507,0.277c-0.144,0.105-0.236,0.261-0.274,0.472l-0.237,1.441
				l-1.792-1.034l-0.185-1.921c-0.046-0.395-0.018-0.7,0.084-0.916c0.102-0.216,0.241-0.384,0.419-0.502
				c0.178-0.119,0.375-0.215,0.595-0.288c0.221-0.071,0.426-0.168,0.618-0.285c0.191-0.119,0.353-0.281,0.486-0.486
				c0.132-0.206,0.198-0.504,0.198-0.895c0-0.451-0.111-0.874-0.334-1.27c-0.223-0.395-0.528-0.704-0.918-0.93
				c-0.298-0.172-0.548-0.275-0.747-0.307c-0.2-0.033-0.372-0.041-0.516-0.022c-0.145,0.018-0.27,0.038-0.377,0.058
				c-0.107,0.021-0.214,0.001-0.321-0.061c-0.242-0.14-0.423-0.383-0.541-0.729L394.733,239.307z M396.288,253.359
				c0-0.27,0.038-0.5,0.114-0.689c0.076-0.188,0.181-0.331,0.314-0.427c0.132-0.097,0.288-0.143,0.469-0.141
				c0.181,0.003,0.377,0.066,0.592,0.19c0.208,0.12,0.403,0.283,0.583,0.489c0.181,0.207,0.339,0.434,0.474,0.685
				c0.136,0.251,0.241,0.516,0.317,0.791c0.076,0.277,0.114,0.552,0.114,0.822c0,0.27-0.038,0.502-0.114,0.695
				c-0.076,0.191-0.182,0.336-0.317,0.43c-0.135,0.095-0.293,0.14-0.474,0.133c-0.18-0.006-0.375-0.07-0.583-0.19
				c-0.215-0.124-0.411-0.287-0.592-0.489c-0.181-0.201-0.337-0.427-0.469-0.676c-0.133-0.249-0.237-0.515-0.314-0.796
				C396.326,253.906,396.288,253.63,396.288,253.359z"/>
			<path style="fill:#FAFAFA;" d="M402.705,243.91c0.208-0.113,0.436-0.2,0.68-0.262c0.245-0.062,0.509-0.087,0.791-0.078
				c0.281,0.008,0.584,0.063,0.909,0.165c0.323,0.099,0.675,0.26,1.052,0.477c0.53,0.306,1.008,0.676,1.434,1.109
				c0.426,0.435,0.787,0.911,1.086,1.434c0.299,0.522,0.528,1.075,0.689,1.66c0.16,0.585,0.241,1.178,0.241,1.78
				c0,0.571-0.06,1.031-0.178,1.38c-0.119,0.348-0.269,0.624-0.448,0.829c-0.181,0.203-0.379,0.355-0.597,0.455
				c-0.217,0.1-0.423,0.19-0.617,0.27c-0.193,0.08-0.363,0.171-0.507,0.277c-0.143,0.105-0.235,0.263-0.274,0.473l-0.237,1.441
				l-1.792-1.035l-0.186-1.921c-0.046-0.395-0.018-0.7,0.084-0.916c0.102-0.216,0.241-0.383,0.419-0.502s0.375-0.215,0.596-0.287
				c0.22-0.073,0.425-0.169,0.617-0.286c0.191-0.119,0.353-0.281,0.486-0.486c0.132-0.206,0.198-0.504,0.198-0.895
				c0-0.451-0.111-0.874-0.334-1.27c-0.223-0.395-0.528-0.704-0.917-0.928c-0.299-0.173-0.549-0.276-0.748-0.308
				c-0.2-0.033-0.372-0.041-0.516-0.022c-0.143,0.019-0.27,0.038-0.377,0.058c-0.108,0.021-0.214,0.001-0.321-0.061
				c-0.241-0.139-0.423-0.383-0.541-0.729L402.705,243.91z M404.26,257.962c0-0.272,0.038-0.501,0.114-0.69
				c0.076-0.188,0.181-0.331,0.313-0.427c0.132-0.097,0.288-0.144,0.469-0.14c0.181,0.003,0.378,0.066,0.592,0.189
				c0.209,0.121,0.403,0.284,0.583,0.489c0.181,0.207,0.339,0.434,0.474,0.685c0.136,0.251,0.241,0.516,0.317,0.792
				c0.076,0.277,0.114,0.551,0.114,0.821s-0.038,0.503-0.114,0.694c-0.076,0.193-0.182,0.337-0.317,0.431
				c-0.135,0.095-0.293,0.139-0.474,0.133c-0.18-0.007-0.374-0.07-0.583-0.19c-0.214-0.124-0.411-0.287-0.592-0.488
				c-0.181-0.203-0.337-0.428-0.469-0.677c-0.133-0.25-0.237-0.515-0.313-0.796C404.298,258.508,404.26,258.231,404.26,257.962z"/>
			<path style="fill:#FAFAFA;" d="M410.677,248.513c0.208-0.113,0.436-0.2,0.68-0.262c0.245-0.062,0.509-0.087,0.791-0.078
				c0.281,0.008,0.584,0.063,0.909,0.165c0.323,0.099,0.675,0.26,1.052,0.477c0.53,0.306,1.008,0.676,1.434,1.109
				c0.426,0.435,0.787,0.911,1.086,1.434c0.299,0.522,0.528,1.075,0.69,1.66c0.16,0.585,0.241,1.179,0.241,1.78
				c0,0.571-0.06,1.031-0.178,1.38c-0.118,0.349-0.268,0.624-0.448,0.829c-0.181,0.203-0.379,0.355-0.597,0.455
				c-0.216,0.101-0.423,0.19-0.617,0.27c-0.193,0.08-0.363,0.171-0.507,0.276c-0.144,0.105-0.235,0.263-0.274,0.473l-0.237,1.441
				l-1.792-1.035l-0.186-1.921c-0.046-0.395-0.018-0.7,0.084-0.916c0.102-0.216,0.241-0.383,0.419-0.502
				c0.178-0.119,0.375-0.215,0.596-0.287c0.22-0.072,0.425-0.169,0.617-0.286c0.191-0.119,0.354-0.281,0.486-0.486
				c0.132-0.206,0.198-0.504,0.198-0.895c0-0.451-0.111-0.874-0.334-1.27c-0.223-0.395-0.528-0.704-0.917-0.928
				c-0.299-0.173-0.549-0.276-0.748-0.308c-0.2-0.033-0.372-0.041-0.516-0.022c-0.144,0.019-0.27,0.038-0.377,0.058
				c-0.107,0.021-0.214,0.001-0.321-0.061c-0.241-0.139-0.423-0.383-0.541-0.729L410.677,248.513z M412.232,262.564
				c0-0.27,0.038-0.5,0.114-0.69c0.076-0.188,0.181-0.331,0.313-0.427c0.132-0.097,0.288-0.143,0.469-0.141
				c0.181,0.003,0.378,0.066,0.592,0.19c0.209,0.121,0.403,0.284,0.583,0.489c0.181,0.206,0.339,0.434,0.474,0.685
				c0.136,0.251,0.241,0.515,0.317,0.792c0.076,0.277,0.114,0.551,0.114,0.822s-0.038,0.502-0.114,0.695
				c-0.076,0.192-0.182,0.337-0.317,0.431c-0.135,0.095-0.293,0.14-0.474,0.133c-0.18-0.007-0.374-0.069-0.583-0.189
				c-0.214-0.124-0.411-0.287-0.592-0.489c-0.181-0.202-0.337-0.427-0.469-0.676c-0.133-0.25-0.237-0.515-0.313-0.796
				C412.27,263.111,412.232,262.835,412.232,262.564z"/>
		</g>
		<g>
			<path style="fill:#FAFAFA;" d="M417.618,308.509c-0.208,0.113-0.436,0.199-0.681,0.261c-0.245,0.062-0.509,0.087-0.79,0.079
				c-0.282-0.008-0.585-0.063-0.909-0.164c-0.324-0.1-0.676-0.261-1.053-0.478c-0.53-0.306-1.007-0.674-1.434-1.108
				c-0.425-0.434-0.787-0.912-1.086-1.434c-0.298-0.522-0.528-1.076-0.689-1.659c-0.161-0.586-0.241-1.178-0.241-1.78
				c0-0.572,0.059-1.032,0.178-1.381c0.118-0.348,0.267-0.625,0.448-0.828c0.18-0.205,0.379-0.355,0.596-0.457
				c0.217-0.1,0.423-0.19,0.617-0.27c0.194-0.078,0.363-0.17,0.507-0.276c0.144-0.106,0.236-0.262,0.275-0.472l0.236-1.442
				l1.792,1.035l0.187,1.923c0.045,0.394,0.017,0.699-0.085,0.914c-0.102,0.217-0.241,0.383-0.419,0.502
				c-0.178,0.119-0.375,0.216-0.595,0.288c-0.22,0.073-0.426,0.169-0.618,0.285c-0.191,0.12-0.354,0.281-0.485,0.487
				c-0.133,0.204-0.199,0.502-0.199,0.893c0,0.451,0.111,0.874,0.334,1.27c0.223,0.395,0.528,0.704,0.918,0.929
				c0.298,0.172,0.548,0.275,0.747,0.307c0.201,0.034,0.372,0.041,0.517,0.023c0.144-0.019,0.269-0.04,0.376-0.06
				c0.107-0.02,0.214,0,0.321,0.062c0.242,0.139,0.423,0.383,0.541,0.728L417.618,308.509z M416.062,294.456
				c0,0.271-0.038,0.501-0.114,0.69c-0.076,0.188-0.18,0.332-0.313,0.428c-0.133,0.096-0.289,0.143-0.47,0.139
				c-0.181-0.003-0.377-0.064-0.591-0.188c-0.209-0.12-0.404-0.285-0.584-0.49c-0.18-0.204-0.338-0.433-0.474-0.685
				c-0.136-0.251-0.241-0.515-0.317-0.792c-0.076-0.277-0.114-0.551-0.114-0.821c0-0.27,0.038-0.503,0.114-0.694
				c0.076-0.193,0.182-0.337,0.317-0.431c0.136-0.094,0.294-0.138,0.474-0.133c0.18,0.007,0.375,0.071,0.584,0.191
				c0.214,0.124,0.41,0.286,0.591,0.487c0.181,0.203,0.337,0.428,0.47,0.678c0.133,0.25,0.236,0.514,0.313,0.794
				C416.024,293.91,416.062,294.186,416.062,294.456z"/>
			<path style="fill:#FAFAFA;" d="M409.645,303.905c-0.208,0.113-0.435,0.2-0.68,0.262c-0.245,0.062-0.509,0.087-0.791,0.079
				c-0.281-0.008-0.584-0.063-0.909-0.165c-0.323-0.1-0.675-0.26-1.052-0.477c-0.53-0.307-1.007-0.675-1.434-1.109
				c-0.425-0.433-0.787-0.911-1.086-1.434c-0.299-0.522-0.528-1.075-0.689-1.659c-0.16-0.585-0.24-1.178-0.24-1.779
				c0-0.57,0.059-1.032,0.177-1.38c0.119-0.349,0.269-0.624,0.448-0.83c0.181-0.203,0.379-0.355,0.597-0.455
				c0.217-0.1,0.423-0.19,0.617-0.27c0.193-0.08,0.363-0.171,0.507-0.277c0.144-0.104,0.236-0.261,0.275-0.472l0.237-1.441
				l1.792,1.034l0.185,1.921c0.046,0.395,0.018,0.7-0.084,0.917c-0.102,0.215-0.241,0.383-0.419,0.502
				c-0.178,0.119-0.375,0.215-0.595,0.288c-0.221,0.071-0.426,0.168-0.618,0.285c-0.191,0.119-0.354,0.281-0.486,0.485
				c-0.132,0.207-0.198,0.504-0.198,0.895c0,0.451,0.111,0.874,0.334,1.269c0.223,0.396,0.528,0.705,0.918,0.93
				c0.298,0.171,0.548,0.275,0.747,0.307c0.2,0.034,0.372,0.041,0.516,0.022c0.144-0.018,0.269-0.038,0.377-0.058
				c0.107-0.022,0.214-0.001,0.321,0.06c0.242,0.141,0.423,0.383,0.541,0.73L409.645,303.905z M408.091,289.854
				c0,0.27-0.038,0.5-0.114,0.689c-0.076,0.188-0.181,0.332-0.314,0.427c-0.132,0.097-0.288,0.143-0.469,0.141
				c-0.181-0.004-0.377-0.066-0.592-0.19c-0.208-0.12-0.403-0.283-0.583-0.489c-0.181-0.207-0.339-0.434-0.474-0.685
				c-0.136-0.251-0.241-0.516-0.317-0.791c-0.076-0.277-0.114-0.552-0.114-0.822s0.038-0.502,0.114-0.695
				c0.076-0.191,0.182-0.336,0.317-0.43c0.135-0.095,0.293-0.14,0.474-0.133c0.18,0.006,0.375,0.07,0.583,0.19
				c0.215,0.124,0.411,0.287,0.592,0.489c0.181,0.201,0.337,0.427,0.469,0.676c0.133,0.249,0.237,0.515,0.314,0.796
				C408.052,289.307,408.091,289.583,408.091,289.854z"/>
			<path style="fill:#FAFAFA;" d="M401.674,299.303c-0.208,0.113-0.436,0.199-0.68,0.262c-0.245,0.062-0.509,0.087-0.791,0.078
				c-0.281-0.007-0.584-0.062-0.909-0.164c-0.323-0.099-0.675-0.26-1.052-0.477c-0.53-0.306-1.008-0.676-1.434-1.109
				c-0.426-0.435-0.787-0.912-1.086-1.434c-0.299-0.523-0.528-1.076-0.689-1.66c-0.16-0.585-0.241-1.178-0.241-1.779
				c0-0.572,0.06-1.031,0.178-1.381c0.119-0.347,0.269-0.624,0.448-0.828c0.181-0.204,0.379-0.355,0.597-0.456
				c0.217-0.1,0.423-0.19,0.617-0.27c0.193-0.079,0.363-0.17,0.507-0.276c0.144-0.106,0.235-0.263,0.274-0.473l0.237-1.441
				l1.792,1.035l0.185,1.921c0.046,0.395,0.018,0.7-0.084,0.915c-0.102,0.217-0.241,0.384-0.419,0.503
				c-0.178,0.119-0.375,0.215-0.596,0.287c-0.22,0.072-0.425,0.17-0.617,0.286c-0.191,0.12-0.353,0.281-0.486,0.486
				c-0.132,0.205-0.198,0.504-0.198,0.894c0,0.451,0.111,0.874,0.334,1.271c0.223,0.395,0.528,0.704,0.917,0.928
				c0.299,0.173,0.549,0.276,0.748,0.308c0.2,0.033,0.372,0.041,0.516,0.022c0.143-0.019,0.27-0.038,0.377-0.059
				c0.108-0.021,0.214,0,0.321,0.062c0.241,0.138,0.423,0.383,0.541,0.728L401.674,299.303z M400.119,285.251
				c0,0.271-0.038,0.501-0.114,0.69c-0.076,0.188-0.181,0.33-0.314,0.427c-0.132,0.097-0.288,0.144-0.469,0.14
				c-0.181-0.003-0.378-0.065-0.592-0.189c-0.209-0.12-0.403-0.284-0.583-0.489c-0.181-0.206-0.339-0.434-0.474-0.685
				c-0.136-0.251-0.241-0.515-0.317-0.792c-0.076-0.277-0.114-0.551-0.114-0.821c0-0.271,0.038-0.503,0.114-0.694
				c0.076-0.193,0.182-0.337,0.317-0.431c0.135-0.095,0.293-0.139,0.474-0.133c0.18,0.007,0.374,0.069,0.583,0.19
				c0.214,0.124,0.411,0.287,0.592,0.488c0.181,0.203,0.337,0.428,0.469,0.677c0.133,0.25,0.237,0.515,0.314,0.796
				C400.081,284.705,400.119,284.982,400.119,285.251z"/>
			<path style="fill:#FAFAFA;" d="M393.701,294.7c-0.208,0.113-0.436,0.2-0.68,0.262c-0.245,0.063-0.509,0.088-0.791,0.079
				c-0.281-0.008-0.584-0.063-0.909-0.165c-0.323-0.099-0.675-0.26-1.052-0.476c-0.53-0.307-1.008-0.677-1.434-1.109
				c-0.426-0.434-0.787-0.912-1.086-1.434c-0.299-0.522-0.528-1.076-0.689-1.66c-0.16-0.585-0.241-1.178-0.241-1.78
				c0-0.571,0.06-1.031,0.178-1.38c0.118-0.349,0.269-0.624,0.448-0.829c0.181-0.202,0.379-0.355,0.597-0.455
				c0.216-0.102,0.423-0.191,0.617-0.27c0.193-0.081,0.363-0.171,0.507-0.277c0.144-0.105,0.235-0.262,0.274-0.473l0.237-1.441
				l1.792,1.035l0.186,1.921c0.046,0.395,0.018,0.7-0.084,0.916c-0.102,0.216-0.241,0.384-0.419,0.503
				c-0.178,0.119-0.375,0.215-0.596,0.287c-0.22,0.072-0.425,0.169-0.617,0.285c-0.191,0.12-0.354,0.281-0.486,0.486
				c-0.132,0.206-0.198,0.504-0.198,0.895c0,0.451,0.111,0.873,0.334,1.27c0.223,0.395,0.528,0.705,0.917,0.929
				c0.299,0.172,0.549,0.276,0.748,0.307c0.2,0.034,0.372,0.041,0.516,0.023c0.144-0.02,0.27-0.038,0.377-0.059
				s0.214-0.001,0.321,0.061c0.241,0.139,0.423,0.383,0.541,0.729L393.701,294.7z M392.146,280.648c0,0.271-0.038,0.501-0.114,0.69
				c-0.076,0.188-0.181,0.331-0.314,0.427c-0.132,0.096-0.288,0.143-0.469,0.14c-0.181-0.004-0.378-0.066-0.592-0.189
				c-0.209-0.121-0.403-0.284-0.583-0.49c-0.181-0.206-0.339-0.434-0.474-0.684c-0.136-0.253-0.241-0.516-0.317-0.792
				c-0.076-0.277-0.114-0.552-0.114-0.821c0-0.272,0.038-0.503,0.114-0.695c0.076-0.192,0.182-0.336,0.317-0.431
				c0.135-0.094,0.293-0.139,0.474-0.133c0.18,0.007,0.374,0.069,0.583,0.191c0.214,0.123,0.411,0.287,0.592,0.488
				c0.181,0.202,0.337,0.428,0.469,0.676c0.133,0.25,0.237,0.516,0.314,0.796C392.108,280.103,392.146,280.378,392.146,280.648z"/>
		</g>
	</g>
</g>
<g id="Direction_Sign_1">
	<g id="Sign_00000018938965424591641750000000223770993622032575_">
		<g>
			<g id="XMLID_00000088834566053157915320000011754653453821968550_">
				<polygon id="XMLID_00000020395573953221589740000002063581555448302754_" style="fill:#37474F;" points="93.928,222.397 
					88.94,219.518 88.939,371.216 93.928,374.096 				"/>
				<g>
					<polygon id="XMLID_00000157992598273431043470000007627674761634822578_" style="fill:#455A64;" points="101.41,369.776 
						93.928,374.096 93.928,222.397 95.741,221.351 96.348,227.609 96.967,220.643 101.411,218.077 					"/>
					<polygon style="fill:#263238;" points="88.939,261.117 88.939,265.863 93.928,268.746 93.928,264.001 					"/>
					<polygon style="fill:#37474F;" points="101.416,259.677 101.416,264.423 93.928,268.746 93.928,264.001 					"/>
					<polygon id="XMLID_00000178925505025043838870000017580585929928341691_" style="fill:#263238;" points="95.741,221.351 
						96.967,220.643 96.348,227.609 					"/>
				</g>
				<polygon style="fill:#263238;" points="88.94,219.518 96.423,215.198 101.411,218.077 93.928,222.397 				"/>
				<g style="opacity:0.15;">
					<polygon points="88.939,301.597 93.928,304.477 93.927,311.473 88.939,308.594 					"/>
				</g>
				<g id="XMLID_00000132060624824886828320000001288962346713027970_" style="opacity:0.15;">
					<polygon points="93.928,304.477 101.411,300.157 101.411,307.154 93.927,311.473 					"/>
				</g>
			</g>
			<g>
				<g id="XMLID_00000063628357731823247710000006803792257120678800_">
					<polygon id="XMLID_00000060735726734322795080000017637988729068647100_" style="fill:#455A64;" points="131.948,242.658 
						64.951,281.303 64.951,255.248 122.788,221.891 123.685,228.149 124.224,221.063 131.948,216.602 143.232,223.117 					"/>
					<polygon id="XMLID_00000049191540669624502410000008580780378136284065_" style="fill:#263238;" points="122.788,221.891 
						123.505,221.478 124.224,221.063 123.685,228.149 					"/>
					<polygon id="XMLID_00000152984413594648183220000017855233954775740565_" style="opacity:0.2;fill:#FFFFFF;" points="
						122.788,221.891 65.878,255.943 64.951,281.303 64.951,255.248 					"/>
					<polygon id="XMLID_00000042726067852462180430000003188629723852767909_" style="fill:#37474F;" points="64.951,259.955 
						69.99,258.459 64.951,262.573 					"/>
					<polygon id="XMLID_00000100344960216779897940000012131428227487761546_" style="fill:#37474F;" points="59.6,278.189 
						64.951,281.303 64.951,255.248 59.6,252.074 					"/>
					<polygon style="fill:#263238;" points="64.951,255.248 59.6,252.074 126.515,213.477 131.948,216.602 					"/>
					<polygon id="XMLID_00000042016874663968709000000009326388698960607157_" style="fill:#37474F;" points="64.951,259.955 
						63.522,260.462 64.951,262.573 					"/>
					<polygon id="XMLID_00000176017735740082089240000001935274167907711679_" style="fill:#263238;" points="63.522,260.462 
						64.951,261.287 69.99,258.459 64.951,262.573 					"/>
					<polygon id="XMLID_00000152226089247463967410000011522005251944630659_" style="fill:#37474F;" points="124.224,221.063 
						123.505,221.478 123.685,228.149 					"/>
				</g>
				<g id="XMLID_00000057835522598743597180000002113764581928789431_">
					<polygon style="fill:#455A64;" points="53.579,317.626 64.863,298.082 131.975,259.393 131.975,285.449 124.25,289.909 
						123.712,283.444 122.814,290.738 64.863,324.137 64.863,324.138 					"/>
					<polygon id="XMLID_00000103979589313046391400000017988750088735928194_" style="fill:#263238;" points="122.814,290.738 
						123.781,288.517 124.25,289.909 123.712,283.444 					"/>
					<polygon id="XMLID_00000168096094290842953800000012925497020187682484_" style="opacity:0.2;fill:#FFFFFF;" points="
						122.814,264.682 65.79,298.776 53.579,317.626 64.863,298.082 					"/>
					
						<rect id="XMLID_00000055668783176944484790000000698593513435456402_" x="45.263" y="303.226" transform="matrix(0.4987 -0.8668 0.8668 0.4987 -237.1574 202.5652)" style="fill:#37474F;" width="22.565" height="6.175"/>
					<g>
						<polygon style="fill:#263238;" points="59.324,307.675 62.364,310.568 58.489,309.122 54.775,307.045 						"/>
						<polygon style="fill:#37474F;" points="62.364,310.568 58.924,308.494 54.775,307.045 58.489,309.122 						"/>
					</g>
					<polyline id="XMLID_00000056420352815273224400000014808294362147856002_" style="fill:#263238;" points="64.863,298.082 
						59.512,295.003 126.635,256.31 131.975,259.393 					"/>
					<polygon id="XMLID_00000067223530814985160440000012369072290751664304_" style="fill:#37474F;" points="124.25,289.909 
						123.781,288.517 123.712,283.444 					"/>
				</g>
			</g>
		</g>
		<g>
			<path style="fill:#FAFAFA;" d="M83.009,251.287c0.208-0.354,0.436-0.702,0.681-1.047c0.245-0.345,0.509-0.675,0.79-0.992
				c0.282-0.317,0.585-0.612,0.909-0.885c0.324-0.274,0.676-0.519,1.053-0.737c0.53-0.306,1.007-0.488,1.434-0.546
				c0.425-0.057,0.787,0.003,1.086,0.18c0.298,0.177,0.528,0.465,0.688,0.864c0.161,0.4,0.241,0.9,0.241,1.501
				c0,0.571-0.059,1.1-0.178,1.585c-0.118,0.485-0.268,0.934-0.448,1.346c-0.18,0.412-0.379,0.793-0.596,1.145
				c-0.217,0.351-0.423,0.679-0.617,0.982c-0.194,0.303-0.363,0.59-0.507,0.861s-0.236,0.535-0.275,0.79l-0.236,1.715l-1.792,1.034
				l-0.187-1.707c-0.045-0.342-0.017-0.68,0.085-1.012c0.102-0.334,0.241-0.662,0.419-0.986c0.178-0.324,0.375-0.648,0.595-0.975
				c0.22-0.326,0.426-0.66,0.618-0.999c0.191-0.341,0.354-0.689,0.485-1.048c0.133-0.357,0.199-0.732,0.199-1.123
				c0-0.451-0.111-0.745-0.334-0.884c-0.223-0.138-0.528-0.094-0.918,0.13c-0.298,0.173-0.548,0.357-0.747,0.556
				c-0.201,0.198-0.372,0.389-0.517,0.573c-0.144,0.185-0.269,0.35-0.376,0.494c-0.107,0.145-0.214,0.247-0.321,0.309
				c-0.242,0.141-0.423,0.105-0.541-0.104L83.009,251.287z M84.565,263.543c0-0.271,0.038-0.545,0.114-0.822
				c0.076-0.276,0.18-0.539,0.313-0.789c0.133-0.249,0.289-0.477,0.47-0.682c0.181-0.206,0.377-0.371,0.591-0.494
				c0.209-0.121,0.404-0.182,0.584-0.185s0.338,0.043,0.474,0.138c0.136,0.095,0.241,0.236,0.317,0.426
				c0.076,0.189,0.114,0.419,0.114,0.689s-0.038,0.547-0.114,0.826c-0.076,0.281-0.182,0.547-0.317,0.798
				c-0.136,0.251-0.294,0.478-0.474,0.68c-0.18,0.2-0.375,0.362-0.584,0.483c-0.214,0.123-0.41,0.188-0.591,0.195
				c-0.181,0.006-0.337-0.039-0.47-0.136c-0.133-0.097-0.236-0.241-0.313-0.434C84.603,264.045,84.565,263.813,84.565,263.543z"/>
			<path style="fill:#FAFAFA;" d="M90.982,246.684c0.208-0.354,0.436-0.703,0.68-1.047c0.245-0.345,0.509-0.675,0.791-0.992
				c0.281-0.317,0.584-0.612,0.909-0.885c0.323-0.274,0.675-0.52,1.052-0.737c0.53-0.306,1.007-0.488,1.434-0.546
				c0.425-0.057,0.787,0.002,1.086,0.18c0.299,0.177,0.528,0.465,0.689,0.864c0.16,0.4,0.24,0.9,0.24,1.501
				c0,0.571-0.059,1.1-0.177,1.585c-0.119,0.485-0.268,0.934-0.448,1.347c-0.181,0.412-0.379,0.793-0.597,1.144
				c-0.217,0.351-0.423,0.679-0.617,0.982c-0.193,0.303-0.363,0.591-0.507,0.862c-0.144,0.271-0.236,0.534-0.274,0.789l-0.237,1.715
				l-1.792,1.035l-0.186-1.707c-0.046-0.342-0.018-0.68,0.084-1.013c0.102-0.333,0.241-0.662,0.419-0.986
				c0.178-0.324,0.375-0.648,0.595-0.975c0.221-0.326,0.426-0.66,0.618-0.999c0.191-0.34,0.354-0.689,0.486-1.047
				c0.132-0.358,0.198-0.733,0.198-1.124c0-0.451-0.111-0.745-0.334-0.884c-0.223-0.138-0.528-0.094-0.918,0.13
				c-0.298,0.172-0.548,0.357-0.747,0.556c-0.2,0.198-0.372,0.389-0.516,0.573c-0.145,0.185-0.27,0.35-0.377,0.494
				c-0.107,0.145-0.214,0.247-0.321,0.309c-0.242,0.14-0.423,0.105-0.541-0.104L90.982,246.684z M92.537,258.94
				c0-0.27,0.038-0.544,0.114-0.821c0.076-0.276,0.181-0.54,0.313-0.789c0.132-0.249,0.288-0.476,0.469-0.683
				c0.181-0.205,0.377-0.369,0.592-0.493c0.208-0.12,0.403-0.183,0.583-0.185c0.181-0.002,0.339,0.043,0.474,0.138
				c0.136,0.095,0.241,0.237,0.317,0.425c0.076,0.189,0.114,0.42,0.114,0.69s-0.038,0.546-0.114,0.827
				c-0.076,0.279-0.182,0.546-0.317,0.797c-0.135,0.251-0.293,0.479-0.474,0.68c-0.18,0.201-0.375,0.363-0.583,0.483
				c-0.215,0.124-0.411,0.188-0.592,0.194c-0.181,0.008-0.337-0.038-0.469-0.135c-0.133-0.096-0.237-0.241-0.313-0.434
				C92.575,259.443,92.537,259.211,92.537,258.94z"/>
			<path style="fill:#FAFAFA;" d="M98.954,242.082c0.208-0.354,0.436-0.703,0.68-1.047c0.245-0.345,0.509-0.675,0.791-0.992
				c0.281-0.317,0.584-0.612,0.909-0.885c0.323-0.274,0.675-0.52,1.052-0.737c0.53-0.306,1.008-0.488,1.434-0.546
				c0.426-0.057,0.787,0.002,1.086,0.18c0.299,0.177,0.528,0.465,0.689,0.864c0.16,0.4,0.241,0.9,0.241,1.502
				c0,0.571-0.06,1.1-0.178,1.585c-0.119,0.485-0.269,0.934-0.448,1.347c-0.181,0.412-0.379,0.793-0.597,1.144
				c-0.217,0.35-0.423,0.679-0.617,0.982c-0.193,0.303-0.363,0.59-0.507,0.862c-0.144,0.271-0.235,0.535-0.274,0.79l-0.237,1.715
				l-1.792,1.035L101,248.171c-0.046-0.342-0.018-0.68,0.084-1.013c0.101-0.333,0.241-0.662,0.419-0.986
				c0.178-0.324,0.375-0.648,0.596-0.975c0.22-0.326,0.425-0.66,0.617-0.999c0.191-0.34,0.354-0.69,0.486-1.047
				c0.132-0.358,0.198-0.733,0.198-1.124c0-0.451-0.111-0.745-0.334-0.884c-0.223-0.138-0.528-0.094-0.917,0.13
				c-0.299,0.172-0.549,0.357-0.748,0.556c-0.2,0.198-0.372,0.389-0.516,0.573c-0.144,0.185-0.27,0.35-0.377,0.494
				c-0.107,0.145-0.214,0.248-0.321,0.31c-0.241,0.14-0.423,0.105-0.541-0.105L98.954,242.082z M100.508,254.338
				c0-0.271,0.038-0.545,0.114-0.822c0.076-0.276,0.181-0.539,0.313-0.789c0.132-0.249,0.288-0.477,0.469-0.682
				c0.181-0.206,0.378-0.37,0.592-0.494c0.209-0.12,0.403-0.182,0.583-0.185c0.181-0.002,0.339,0.043,0.474,0.138
				c0.136,0.095,0.241,0.237,0.317,0.426c0.076,0.189,0.114,0.419,0.114,0.689c0,0.27-0.038,0.547-0.114,0.826
				c-0.076,0.281-0.182,0.547-0.317,0.798c-0.135,0.251-0.293,0.478-0.474,0.68c-0.18,0.2-0.374,0.362-0.583,0.483
				c-0.214,0.123-0.411,0.188-0.592,0.195c-0.181,0.006-0.337-0.039-0.469-0.136c-0.133-0.097-0.237-0.241-0.313-0.434
				C100.547,254.84,100.508,254.608,100.508,254.338z"/>
			<path style="fill:#FAFAFA;" d="M106.926,237.479c0.208-0.354,0.436-0.703,0.68-1.047c0.245-0.345,0.509-0.675,0.791-0.992
				c0.281-0.317,0.584-0.612,0.909-0.885c0.323-0.274,0.675-0.52,1.052-0.737c0.53-0.306,1.008-0.488,1.434-0.546
				c0.426-0.057,0.787,0.003,1.086,0.18c0.299,0.177,0.528,0.465,0.689,0.864c0.16,0.4,0.241,0.9,0.241,1.501
				c0,0.571-0.06,1.1-0.178,1.585c-0.118,0.485-0.269,0.934-0.448,1.347c-0.181,0.412-0.379,0.793-0.597,1.144
				c-0.216,0.351-0.423,0.679-0.617,0.982c-0.193,0.303-0.363,0.59-0.507,0.862c-0.144,0.27-0.235,0.535-0.274,0.79l-0.237,1.715
				l-1.792,1.035l-0.186-1.707c-0.046-0.342-0.018-0.68,0.084-1.013c0.102-0.333,0.241-0.662,0.419-0.986
				c0.178-0.324,0.375-0.648,0.596-0.975c0.22-0.326,0.425-0.66,0.617-0.999c0.191-0.34,0.354-0.689,0.486-1.047
				c0.132-0.358,0.198-0.733,0.198-1.124c0-0.451-0.111-0.745-0.334-0.884c-0.223-0.138-0.528-0.094-0.917,0.13
				c-0.299,0.172-0.549,0.357-0.748,0.556c-0.2,0.198-0.372,0.389-0.516,0.573c-0.144,0.185-0.27,0.35-0.377,0.494
				c-0.107,0.145-0.214,0.247-0.321,0.31c-0.241,0.14-0.423,0.105-0.541-0.105L106.926,237.479z M108.481,249.735
				c0-0.27,0.038-0.544,0.114-0.822c0.076-0.276,0.181-0.54,0.313-0.789c0.132-0.249,0.288-0.476,0.469-0.682
				c0.181-0.205,0.378-0.37,0.592-0.494c0.209-0.121,0.403-0.182,0.583-0.185c0.181-0.002,0.339,0.043,0.474,0.138
				c0.136,0.095,0.241,0.237,0.317,0.425c0.076,0.189,0.114,0.419,0.114,0.69c0,0.27-0.038,0.546-0.114,0.827
				c-0.076,0.28-0.182,0.546-0.317,0.797c-0.135,0.251-0.293,0.478-0.474,0.68c-0.18,0.201-0.374,0.363-0.583,0.484
				c-0.214,0.123-0.411,0.188-0.592,0.194c-0.181,0.007-0.337-0.038-0.469-0.135c-0.133-0.097-0.237-0.241-0.313-0.434
				C108.519,250.237,108.481,250.005,108.481,249.735z"/>
		</g>
		<g>
			<path style="fill:#FAFAFA;" d="M113.867,289.461c-0.208,0.353-0.436,0.702-0.681,1.047c-0.245,0.345-0.509,0.675-0.79,0.991
				c-0.282,0.317-0.585,0.612-0.909,0.886c-0.324,0.274-0.676,0.52-1.053,0.737c-0.53,0.307-1.007,0.488-1.434,0.547
				c-0.425,0.057-0.787-0.003-1.086-0.18c-0.298-0.178-0.528-0.466-0.688-0.864c-0.161-0.4-0.241-0.899-0.241-1.501
				c0-0.572,0.059-1.1,0.178-1.586c0.118-0.484,0.268-0.934,0.448-1.346c0.18-0.412,0.379-0.793,0.596-1.145
				c0.217-0.351,0.423-0.679,0.617-0.982c0.194-0.303,0.363-0.59,0.507-0.861c0.143-0.271,0.236-0.535,0.275-0.79l0.236-1.715
				l1.792-1.034l0.187,1.707c0.045,0.342,0.017,0.68-0.085,1.012c-0.102,0.334-0.241,0.662-0.419,0.986
				c-0.178,0.324-0.375,0.648-0.595,0.975c-0.22,0.326-0.426,0.66-0.618,0.999c-0.191,0.341-0.354,0.689-0.485,1.048
				c-0.133,0.357-0.199,0.732-0.199,1.123c0,0.451,0.111,0.745,0.334,0.885c0.223,0.138,0.528,0.094,0.918-0.131
				c0.298-0.172,0.548-0.357,0.747-0.556c0.201-0.198,0.372-0.389,0.517-0.573c0.144-0.185,0.269-0.35,0.376-0.494
				c0.107-0.145,0.214-0.247,0.321-0.309c0.242-0.141,0.423-0.105,0.541,0.104L113.867,289.461z M112.311,277.204
				c0,0.271-0.038,0.545-0.114,0.822c-0.076,0.276-0.18,0.539-0.313,0.789c-0.133,0.249-0.289,0.477-0.47,0.682
				c-0.181,0.206-0.377,0.371-0.591,0.494c-0.209,0.121-0.404,0.182-0.584,0.185s-0.338-0.043-0.474-0.138
				c-0.136-0.095-0.241-0.236-0.317-0.426c-0.076-0.189-0.114-0.419-0.114-0.689s0.038-0.547,0.114-0.826
				c0.076-0.281,0.182-0.547,0.317-0.798c0.136-0.251,0.294-0.478,0.474-0.68c0.18-0.2,0.375-0.362,0.584-0.483
				c0.214-0.123,0.41-0.188,0.591-0.195c0.181-0.006,0.337,0.039,0.47,0.136c0.133,0.097,0.236,0.241,0.313,0.434
				C112.273,276.702,112.311,276.934,112.311,277.204z"/>
			<path style="fill:#FAFAFA;" d="M105.894,294.063c-0.208,0.354-0.435,0.703-0.68,1.047c-0.245,0.345-0.509,0.675-0.791,0.992
				c-0.281,0.316-0.584,0.611-0.909,0.885c-0.323,0.274-0.675,0.52-1.052,0.737c-0.53,0.306-1.007,0.487-1.434,0.546
				c-0.425,0.058-0.787-0.002-1.086-0.18c-0.299-0.177-0.528-0.465-0.689-0.863c-0.16-0.4-0.24-0.9-0.24-1.502
				c0-0.57,0.059-1.1,0.177-1.584c0.119-0.486,0.269-0.935,0.448-1.348c0.181-0.411,0.379-0.793,0.597-1.144
				c0.217-0.351,0.423-0.679,0.617-0.982c0.193-0.304,0.363-0.591,0.507-0.862c0.144-0.27,0.236-0.534,0.274-0.789l0.237-1.715
				l1.792-1.035l0.186,1.707c0.046,0.342,0.018,0.68-0.084,1.014c-0.102,0.332-0.241,0.661-0.419,0.985
				c-0.178,0.324-0.375,0.648-0.595,0.975c-0.221,0.326-0.426,0.659-0.618,0.999c-0.191,0.34-0.354,0.69-0.486,1.047
				c-0.132,0.359-0.198,0.733-0.198,1.124c0,0.451,0.111,0.745,0.334,0.884c0.223,0.139,0.528,0.095,0.918-0.13
				c0.298-0.173,0.548-0.357,0.747-0.556c0.2-0.197,0.372-0.389,0.516-0.573c0.145-0.185,0.27-0.35,0.377-0.493
				c0.107-0.146,0.214-0.248,0.321-0.311c0.242-0.139,0.423-0.105,0.541,0.105L105.894,294.063z M104.339,281.807
				c0,0.27-0.038,0.544-0.114,0.821c-0.076,0.276-0.181,0.54-0.313,0.789c-0.132,0.249-0.288,0.476-0.469,0.683
				c-0.181,0.205-0.377,0.369-0.592,0.493c-0.208,0.12-0.403,0.183-0.583,0.185c-0.181,0.002-0.339-0.043-0.474-0.138
				c-0.136-0.095-0.241-0.237-0.317-0.425c-0.076-0.189-0.114-0.42-0.114-0.69s0.038-0.546,0.114-0.827
				c0.076-0.279,0.182-0.546,0.317-0.797c0.135-0.251,0.293-0.479,0.474-0.68c0.18-0.201,0.375-0.363,0.583-0.483
				c0.215-0.124,0.411-0.188,0.592-0.194c0.181-0.008,0.337,0.038,0.469,0.135c0.133,0.096,0.237,0.241,0.313,0.434
				C104.301,281.304,104.339,281.536,104.339,281.807z"/>
			<path style="fill:#FAFAFA;" d="M97.923,298.666c-0.208,0.354-0.436,0.702-0.68,1.047c-0.245,0.345-0.509,0.675-0.791,0.991
				c-0.281,0.317-0.584,0.612-0.909,0.886c-0.323,0.274-0.675,0.52-1.052,0.737c-0.53,0.307-1.008,0.488-1.434,0.547
				c-0.426,0.057-0.787-0.003-1.086-0.18c-0.299-0.178-0.528-0.466-0.689-0.864c-0.16-0.4-0.241-0.899-0.241-1.501
				c0-0.572,0.06-1.1,0.178-1.586c0.119-0.484,0.269-0.934,0.448-1.346c0.181-0.412,0.379-0.793,0.597-1.145
				c0.217-0.351,0.423-0.679,0.617-0.983c0.193-0.303,0.363-0.59,0.507-0.861c0.144-0.271,0.235-0.535,0.274-0.79l0.237-1.715
				l1.792-1.034l0.186,1.707c0.046,0.342,0.017,0.68-0.084,1.012c-0.102,0.334-0.241,0.662-0.419,0.986
				c-0.178,0.324-0.375,0.648-0.596,0.975c-0.22,0.326-0.425,0.66-0.617,0.999c-0.191,0.341-0.354,0.689-0.486,1.048
				c-0.132,0.357-0.198,0.732-0.198,1.123c0,0.451,0.111,0.745,0.334,0.885c0.223,0.138,0.528,0.094,0.917-0.131
				c0.299-0.172,0.549-0.358,0.748-0.556c0.2-0.198,0.372-0.389,0.516-0.573c0.144-0.185,0.27-0.35,0.377-0.494
				c0.107-0.145,0.214-0.247,0.321-0.309c0.241-0.141,0.423-0.105,0.541,0.103L97.923,298.666z M96.368,286.409
				c0,0.272-0.038,0.545-0.114,0.822c-0.076,0.276-0.181,0.539-0.313,0.789c-0.132,0.249-0.288,0.477-0.469,0.682
				c-0.181,0.206-0.378,0.371-0.592,0.494c-0.209,0.121-0.403,0.182-0.583,0.185c-0.181,0.003-0.339-0.043-0.474-0.138
				c-0.136-0.095-0.241-0.236-0.317-0.426c-0.076-0.189-0.114-0.419-0.114-0.689s0.038-0.547,0.114-0.826
				c0.076-0.281,0.182-0.547,0.317-0.798c0.135-0.251,0.293-0.477,0.474-0.68c0.18-0.2,0.374-0.362,0.583-0.483
				c0.214-0.123,0.411-0.188,0.592-0.195c0.181-0.006,0.337,0.039,0.469,0.136c0.133,0.097,0.237,0.241,0.313,0.434
				C96.33,285.907,96.368,286.139,96.368,286.409z"/>
			<path style="fill:#FAFAFA;" d="M89.95,303.268c-0.208,0.354-0.436,0.703-0.68,1.047c-0.245,0.346-0.509,0.676-0.791,0.992
				c-0.281,0.316-0.584,0.611-0.909,0.885c-0.323,0.274-0.675,0.52-1.052,0.738c-0.53,0.306-1.008,0.487-1.434,0.546
				c-0.426,0.058-0.787-0.003-1.086-0.18c-0.299-0.177-0.528-0.466-0.689-0.864c-0.16-0.4-0.241-0.899-0.241-1.501
				c0-0.571,0.06-1.1,0.178-1.585c0.118-0.485,0.269-0.934,0.448-1.347c0.181-0.411,0.379-0.793,0.597-1.144
				c0.216-0.352,0.423-0.68,0.617-0.982c0.193-0.304,0.363-0.591,0.507-0.862c0.144-0.271,0.235-0.534,0.275-0.79l0.237-1.715
				l1.792-1.034l0.186,1.707c0.046,0.342,0.018,0.68-0.084,1.013c-0.102,0.333-0.241,0.662-0.419,0.986
				c-0.178,0.324-0.375,0.648-0.596,0.975c-0.22,0.326-0.425,0.659-0.617,0.998c-0.191,0.341-0.354,0.689-0.486,1.048
				c-0.132,0.358-0.198,0.733-0.198,1.124c0,0.451,0.111,0.744,0.334,0.884c0.223,0.138,0.528,0.095,0.917-0.13
				c0.299-0.173,0.549-0.357,0.748-0.557c0.2-0.197,0.372-0.389,0.516-0.572c0.143-0.186,0.269-0.35,0.377-0.494
				c0.107-0.145,0.214-0.248,0.321-0.31c0.241-0.14,0.423-0.105,0.541,0.104L89.95,303.268z M88.395,291.012
				c0,0.271-0.038,0.545-0.114,0.822c-0.076,0.275-0.181,0.539-0.313,0.789c-0.132,0.248-0.288,0.475-0.469,0.682
				c-0.181,0.205-0.378,0.37-0.592,0.494c-0.209,0.12-0.403,0.182-0.583,0.184c-0.181,0.003-0.339-0.043-0.474-0.137
				c-0.136-0.096-0.241-0.237-0.317-0.426c-0.076-0.189-0.114-0.42-0.114-0.689c0-0.271,0.038-0.547,0.114-0.827
				c0.076-0.28,0.182-0.546,0.317-0.798c0.135-0.25,0.293-0.478,0.474-0.68c0.18-0.2,0.374-0.362,0.583-0.482
				c0.214-0.124,0.411-0.188,0.592-0.195c0.181-0.007,0.337,0.039,0.469,0.135c0.133,0.097,0.237,0.242,0.313,0.434
				C88.357,290.51,88.395,290.742,88.395,291.012z"/>
		</g>
	</g>
</g>
<g id="Question_Marks">
	<g id="Question_Marks_00000081635575043786494780000014937655836131595404_">
		<path id="Question_Mark_00000109750539113749121070000015029115920574730913_" style="fill:#EBEBEB;" d="M449.088,207.493
			c-0.384-0.439-0.855-0.79-1.417-1.056c-0.562-0.265-1.138-0.409-1.729-0.43c-0.591-0.021-1.145,0.06-1.662,0.246
			c-0.517,0.185-0.992,0.476-1.426,0.872c-0.434,0.396-0.779,0.867-1.036,1.411c-0.266,0.562-0.411,1.131-0.438,1.709
			c-0.026,0.578,0.053,1.126,0.238,1.642c0.185,0.517,0.476,0.992,0.872,1.426c0.396,0.434,0.875,0.784,1.437,1.049
			c0.562,0.265,1.131,0.41,1.709,0.437c0.578,0.026,1.13-0.051,1.656-0.232c0.525-0.182,1.007-0.464,1.446-0.847
			c0.438-0.383,0.79-0.855,1.056-1.417c0.257-0.544,0.396-1.111,0.418-1.703c0.021-0.59-0.065-1.146-0.258-1.667
			C449.759,208.412,449.471,207.932,449.088,207.493z M468.287,184.875c-0.526-1.203-1.318-2.313-2.373-3.327
			c-1.056-1.014-2.347-1.882-3.875-2.603c-1.124-0.531-2.216-0.923-3.276-1.177c-1.06-0.254-2.087-0.4-3.077-0.439
			c-0.991-0.038-1.953,0.011-2.888,0.149c-0.934,0.139-1.825,0.329-2.67,0.574l0.43,3.52c0.032,0.659,0.365,1.138,0.997,1.436
			c0.264,0.125,0.613,0.156,1.05,0.094c0.438-0.061,0.962-0.115,1.572-0.159c0.611-0.044,1.315-0.012,2.113,0.096
			c0.797,0.108,1.696,0.399,2.696,0.871c0.684,0.323,1.275,0.72,1.772,1.191c0.496,0.471,0.871,0.986,1.122,1.545
			c0.251,0.559,0.377,1.144,0.377,1.756c0.002,0.612-0.148,1.234-0.446,1.866c-0.464,0.983-1.07,1.732-1.818,2.249
			c-0.748,0.516-1.565,0.914-2.448,1.194c-0.883,0.281-1.791,0.496-2.72,0.648c-0.93,0.151-1.803,0.351-2.617,0.599
			c-0.815,0.248-1.541,0.603-2.177,1.065c-0.636,0.461-1.097,1.13-1.381,2.004l-1.579,4.503l4.45,2.102l2.42-3.558
			c0.353-0.52,0.859-0.898,1.518-1.134c0.659-0.236,1.406-0.442,2.24-0.616c0.834-0.175,1.721-0.362,2.663-0.562
			c0.942-0.199,1.873-0.521,2.793-0.967c0.918-0.446,1.801-1.065,2.647-1.857c0.846-0.792,1.584-1.855,2.214-3.189
			c0.647-1.369,0.985-2.722,1.017-4.06C469.062,187.35,468.814,186.079,468.287,184.875z"/>
		<path id="Question_Mark_00000026864555166372233150000016895594185962886530_" style="fill:#EBEBEB;" d="M356.931,154.719
			c0.536-0.315,0.978-0.71,1.329-1.187c0.351-0.476,0.595-0.98,0.733-1.511c0.138-0.532,0.166-1.088,0.083-1.669
			c-0.083-0.582-0.277-1.132-0.582-1.65c-0.315-0.536-0.703-0.977-1.166-1.324c-0.463-0.348-0.96-0.59-1.491-0.728
			s-1.088-0.165-1.67-0.082c-0.582,0.083-1.141,0.282-1.676,0.596c-0.536,0.315-0.976,0.703-1.324,1.167
			c-0.347,0.463-0.594,0.962-0.741,1.499c-0.146,0.536-0.184,1.093-0.114,1.672c0.07,0.578,0.261,1.134,0.576,1.671
			c0.304,0.518,0.695,0.953,1.172,1.304c0.476,0.35,0.984,0.592,1.523,0.725c0.54,0.133,1.099,0.165,1.677,0.095
			C355.84,155.225,356.396,155.034,356.931,154.719z M375.851,171.109c-0.563-0.345-1.146-0.34-1.748,0.015
			c-0.251,0.148-0.474,0.419-0.669,0.815c-0.196,0.396-0.447,0.859-0.755,1.388c-0.307,0.53-0.73,1.093-1.269,1.692
			c-0.538,0.597-1.284,1.177-2.238,1.737c-0.652,0.383-1.313,0.648-1.982,0.793c-0.669,0.145-1.305,0.164-1.909,0.057
			c-0.603-0.107-1.157-0.332-1.663-0.677c-0.507-0.343-0.936-0.817-1.29-1.419c-0.551-0.937-0.829-1.86-0.834-2.769
			c-0.005-0.909,0.126-1.808,0.392-2.695c0.265-0.888,0.599-1.76,0.997-2.613c0.399-0.854,0.726-1.688,0.979-2.5
			c0.254-0.813,0.37-1.613,0.347-2.399c-0.023-0.786-0.315-1.543-0.878-2.27l-2.831-3.841l-4.243,2.493l1.577,4.004
			c0.23,0.585,0.258,1.216,0.082,1.893c-0.176,0.677-0.427,1.41-0.752,2.198c-0.325,0.787-0.67,1.626-1.036,2.517
			c-0.366,0.89-0.624,1.841-0.773,2.852c-0.149,1.01-0.134,2.088,0.043,3.233c0.177,1.145,0.641,2.353,1.388,3.625
			c0.767,1.305,1.694,2.347,2.782,3.127c1.088,0.779,2.277,1.29,3.569,1.532c1.29,0.243,2.653,0.214,4.085-0.087
			c1.433-0.301,2.877-0.88,4.333-1.736c1.071-0.63,2.01-1.311,2.817-2.044c0.807-0.733,1.506-1.499,2.096-2.295
			c0.589-0.797,1.091-1.62,1.503-2.471c0.412-0.85,0.755-1.693,1.03-2.53L375.851,171.109z"/>
		<path id="Question_Mark_00000073707459945201920900000015268334436149488542_" style="fill:#EBEBEB;" d="M404.174,48.296
			c-0.377,0.635-0.943,1.116-1.698,1.441s-1.616,0.62-2.583,0.886c-0.965,0.266-1.993,0.551-3.083,0.853
			c-1.09,0.302-2.159,0.748-3.205,1.338c-1.045,0.59-2.035,1.381-2.97,2.371c-0.935,0.99-1.723,2.291-2.365,3.902
			c-0.659,1.653-0.957,3.265-0.897,4.836c0.062,1.571,0.445,3.044,1.151,4.418c0.705,1.374,1.714,2.617,3.025,3.729
			c1.313,1.113,2.891,2.036,4.735,2.771c1.357,0.541,2.666,0.921,3.929,1.142c1.262,0.221,2.477,0.317,3.642,0.291
			c1.165-0.028,2.29-0.156,3.377-0.386c1.085-0.231,2.117-0.52,3.091-0.868l-0.762-4.098c-0.086-0.771-0.51-1.308-1.273-1.612
			c-0.319-0.127-0.731-0.138-1.239-0.033c-0.509,0.104-1.12,0.205-1.833,0.301c-0.713,0.097-1.541,0.11-2.485,0.041
			c-0.942-0.069-2.018-0.344-3.226-0.825c-0.826-0.329-1.548-0.752-2.165-1.268c-0.617-0.517-1.094-1.093-1.429-1.73
			c-0.335-0.637-0.525-1.314-0.57-2.032c-0.047-0.718,0.083-1.458,0.387-2.221c0.473-1.187,1.129-2.11,1.969-2.771
			c0.84-0.66,1.769-1.187,2.784-1.579c1.016-0.394,2.065-0.713,3.144-0.958c1.08-0.245,2.089-0.543,3.026-0.894
			c0.938-0.35,1.764-0.82,2.477-1.408c0.713-0.588,1.205-1.405,1.474-2.451l1.525-5.397l-5.373-2.141L404.174,48.296z
			 M417.839,34.711c-0.255-0.593-0.631-1.129-1.127-1.609c-0.496-0.48-1.084-0.856-1.762-1.126c-0.678-0.27-1.356-0.399-2.037-0.388
			c-0.679,0.011-1.321,0.142-1.925,0.393c-0.602,0.251-1.148,0.617-1.635,1.099c-0.486,0.481-0.865,1.06-1.135,1.739
			c-0.262,0.656-0.384,1.333-0.366,2.028c0.018,0.694,0.16,1.34,0.425,1.937c0.266,0.597,0.639,1.139,1.121,1.626
			c0.483,0.487,1.061,0.865,1.739,1.135c0.678,0.27,1.365,0.397,2.06,0.379c0.695-0.018,1.339-0.154,1.932-0.409
			c0.593-0.255,1.129-0.631,1.609-1.127c0.48-0.496,0.851-1.074,1.113-1.73c0.271-0.679,0.4-1.357,0.388-2.037
			C418.228,35.94,418.095,35.304,417.839,34.711z"/>
		<path id="Question_Mark_00000088112279559781901500000004905591095147461038_" style="fill:#EBEBEB;" d="M472.667,146.869
			c-0.065-0.681-0.275-1.34-0.63-1.979c-0.343-0.618-0.79-1.14-1.34-1.565c-0.549-0.425-1.14-0.723-1.769-0.896
			c-0.631-0.171-1.287-0.225-1.968-0.159c-0.683,0.066-1.341,0.275-1.979,0.63c-0.638,0.355-1.17,0.807-1.595,1.357
			c-0.426,0.55-0.727,1.135-0.904,1.755c-0.177,0.621-0.225,1.274-0.144,1.959c0.081,0.686,0.294,1.338,0.637,1.956
			c0.355,0.639,0.799,1.168,1.332,1.589c0.534,0.422,1.111,0.721,1.732,0.898c0.621,0.177,1.274,0.225,1.96,0.144
			c0.686-0.081,1.348-0.299,1.986-0.653c0.638-0.355,1.166-0.799,1.588-1.333c0.421-0.534,0.725-1.114,0.913-1.74
			C472.672,148.205,472.733,147.551,472.667,146.869z M464.151,133.237c-0.254-0.693-0.269-1.436-0.043-2.227
			c0.226-0.791,0.541-1.645,0.946-2.561c0.404-0.916,0.833-1.892,1.288-2.928c0.455-1.036,0.785-2.146,0.989-3.33
			c0.204-1.183,0.217-2.45,0.04-3.8c-0.176-1.351-0.686-2.783-1.528-4.299c-0.864-1.555-1.925-2.806-3.18-3.753
			c-1.257-0.946-2.64-1.58-4.151-1.902c-1.509-0.322-3.112-0.326-4.802-0.013c-1.692,0.314-3.405,0.952-5.141,1.917
			c-1.277,0.709-2.399,1.484-3.368,2.322c-0.969,0.838-1.812,1.719-2.528,2.637c-0.715,0.92-1.327,1.873-1.836,2.86
			c-0.507,0.987-0.935,1.968-1.281,2.944l3.657,2.001c0.652,0.421,1.336,0.431,2.054,0.032c0.3-0.167,0.569-0.479,0.809-0.939
			c0.241-0.46,0.549-0.997,0.926-1.61c0.376-0.614,0.889-1.264,1.539-1.952c0.649-0.687,1.542-1.346,2.679-1.978
			c0.777-0.432,1.561-0.724,2.351-0.876c0.79-0.151,1.539-0.156,2.244-0.013c0.706,0.142,1.35,0.424,1.935,0.843
			c0.586,0.418,1.077,0.986,1.476,1.704c0.621,1.117,0.921,2.209,0.902,3.278c-0.02,1.068-0.199,2.121-0.537,3.156
			c-0.337,1.036-0.753,2.051-1.246,3.042c-0.493,0.992-0.9,1.962-1.221,2.91c-0.322,0.949-0.48,1.885-0.475,2.809
			c0.005,0.924,0.327,1.822,0.967,2.692l3.218,4.593l5.056-2.81L464.151,133.237z"/>
		<path id="Question_Mark_00000139974751721695131090000015117340233712833190_" style="fill:#EBEBEB;" d="M417.287,163.238
			c-0.192-0.044-0.428-0.015-0.707,0.089c-0.281,0.103-0.619,0.213-1.016,0.33c-0.398,0.117-0.867,0.196-1.41,0.239
			c-0.542,0.043-1.177-0.02-1.906-0.189c-0.499-0.116-0.946-0.293-1.341-0.533c-0.395-0.24-0.717-0.527-0.963-0.86
			c-0.246-0.333-0.413-0.702-0.501-1.106c-0.089-0.404-0.079-0.836,0.027-1.297c0.166-0.716,0.459-1.298,0.879-1.746
			c0.42-0.448,0.903-0.828,1.446-1.14c0.543-0.312,1.112-0.585,1.705-0.818c0.593-0.233,1.141-0.49,1.643-0.771
			c0.503-0.281,0.932-0.619,1.286-1.016c0.354-0.396,0.563-0.903,0.625-1.522l0.399-3.201l-3.241-0.751l-1.089,2.698
			c-0.159,0.394-0.439,0.717-0.84,0.967c-0.402,0.25-0.866,0.493-1.392,0.728c-0.526,0.235-1.085,0.486-1.679,0.753
			c-0.594,0.267-1.163,0.613-1.706,1.039c-0.543,0.426-1.037,0.962-1.483,1.606s-0.781,1.452-1.006,2.424
			c-0.231,0.997-0.261,1.94-0.09,2.828c0.172,0.888,0.517,1.692,1.038,2.412c0.52,0.72,1.202,1.339,2.044,1.858
			c0.843,0.519,1.82,0.907,2.933,1.165c0.818,0.19,1.596,0.292,2.333,0.308c0.737,0.016,1.436-0.034,2.096-0.151
			c0.66-0.117,1.289-0.287,1.887-0.512c0.597-0.225,1.159-0.479,1.682-0.762l-0.789-2.264
			C418.036,163.613,417.748,163.344,417.287,163.238z M420.108,143.784c-0.065-0.386-0.196-0.736-0.393-1.051
			c-0.196-0.315-0.457-0.587-0.781-0.817c-0.324-0.23-0.69-0.393-1.1-0.487c-0.409-0.095-0.806-0.109-1.192-0.044
			c-0.385,0.065-0.739,0.196-1.061,0.391c-0.321,0.195-0.599,0.451-0.834,0.767c-0.235,0.316-0.4,0.678-0.495,1.088
			c-0.092,0.396-0.102,0.791-0.032,1.185c0.07,0.393,0.207,0.748,0.41,1.065c0.203,0.316,0.463,0.592,0.778,0.827
			c0.317,0.235,0.679,0.4,1.088,0.495c0.409,0.095,0.81,0.107,1.204,0.037c0.393-0.071,0.748-0.204,1.063-0.401
			c0.315-0.196,0.588-0.457,0.817-0.78c0.23-0.324,0.391-0.684,0.482-1.08C420.159,144.566,420.173,144.169,420.108,143.784z"/>
		<path id="Question_Mark_00000013159246801702770750000011714010143197314740_" style="fill:#EBEBEB;" d="M366.352,112.379
			c-0.222-0.342-0.505-0.64-0.85-0.894c-0.345-0.254-0.738-0.43-1.183-0.531c-0.445-0.101-0.88-0.112-1.307-0.033
			c-0.427,0.079-0.811,0.225-1.151,0.44c-0.341,0.215-0.635,0.499-0.883,0.851c-0.248,0.353-0.42,0.745-0.518,1.175
			c-0.101,0.445-0.115,0.876-0.042,1.294c0.073,0.418,0.217,0.798,0.432,1.139c0.215,0.341,0.499,0.635,0.852,0.883
			c0.353,0.248,0.751,0.422,1.196,0.523c0.445,0.101,0.875,0.114,1.294,0.041c0.418-0.073,0.801-0.216,1.149-0.43
			c0.347-0.214,0.648-0.492,0.901-0.837c0.253-0.344,0.43-0.738,0.531-1.183c0.097-0.43,0.107-0.859,0.028-1.286
			C366.723,113.106,366.573,112.721,366.352,112.379z M376.798,94.838c-0.191-0.963-0.571-1.834-1.14-2.613
			c-0.568-0.778-1.312-1.448-2.229-2.006c-0.918-0.559-1.981-0.975-3.191-1.249c-0.889-0.201-1.734-0.308-2.534-0.322
			c-0.8-0.013-1.559,0.045-2.274,0.175c-0.716,0.131-1.397,0.319-2.045,0.566c-0.647,0.248-1.255,0.526-1.822,0.836l0.869,2.454
			c0.128,0.467,0.442,0.757,0.942,0.87c0.209,0.047,0.464,0.014,0.767-0.1c0.304-0.114,0.671-0.235,1.101-0.364
			c0.431-0.129,0.94-0.218,1.529-0.267c0.588-0.049,1.278,0.016,2.07,0.195c0.542,0.123,1.028,0.313,1.459,0.571
			c0.43,0.259,0.781,0.568,1.05,0.928c0.269,0.36,0.452,0.759,0.55,1.198c0.098,0.438,0.09,0.907-0.023,1.408
			c-0.176,0.778-0.491,1.411-0.945,1.9c-0.454,0.489-0.976,0.904-1.564,1.245c-0.588,0.342-1.204,0.64-1.846,0.897
			c-0.642,0.257-1.236,0.538-1.78,0.846c-0.545,0.307-1.008,0.677-1.391,1.109c-0.382,0.432-0.606,0.984-0.671,1.655l-0.415,3.477
			l3.523,0.798l1.168-2.934c0.17-0.428,0.473-0.78,0.907-1.054c0.434-0.274,0.936-0.54,1.507-0.798
			c0.569-0.258,1.176-0.534,1.819-0.826c0.643-0.293,1.258-0.672,1.847-1.137c0.587-0.466,1.121-1.05,1.601-1.751
			c0.48-0.702,0.84-1.581,1.079-2.637C376.961,96.825,376.988,95.801,376.798,94.838z"/>
		<path id="Question_Mark_00000125560507198845204700000004732608913330338967_" style="fill:#EBEBEB;" d="M139.728,165.906
			c-0.209-0.047-0.464-0.014-0.767,0.1c-0.304,0.114-0.67,0.235-1.101,0.364c-0.431,0.129-0.94,0.218-1.529,0.267
			c-0.588,0.049-1.278-0.016-2.07-0.195c-0.542-0.123-1.028-0.313-1.459-0.571c-0.43-0.259-0.781-0.568-1.05-0.928
			s-0.452-0.759-0.55-1.198c-0.099-0.438-0.09-0.907,0.023-1.408c0.176-0.778,0.491-1.411,0.945-1.901
			c0.454-0.489,0.976-0.904,1.564-1.245c0.588-0.342,1.204-0.64,1.846-0.897c0.643-0.256,1.236-0.538,1.78-0.846
			c0.545-0.307,1.008-0.677,1.391-1.109c0.382-0.432,0.606-0.984,0.671-1.655l0.415-3.477l-3.522-0.798l-1.168,2.934
			c-0.171,0.428-0.473,0.78-0.907,1.054c-0.434,0.274-0.937,0.54-1.507,0.798c-0.569,0.258-1.176,0.533-1.819,0.826
			s-1.258,0.672-1.847,1.137c-0.587,0.465-1.121,1.05-1.601,1.751c-0.48,0.702-0.84,1.581-1.079,2.637
			c-0.245,1.083-0.273,2.107-0.083,3.07c0.191,0.963,0.57,1.834,1.14,2.613c0.568,0.779,1.312,1.447,2.229,2.006
			c0.918,0.559,1.981,0.975,3.19,1.249c0.889,0.201,1.734,0.308,2.534,0.322c0.8,0.013,1.559-0.045,2.274-0.175
			c0.716-0.131,1.397-0.319,2.045-0.566c0.647-0.248,1.255-0.526,1.822-0.836l-0.868-2.454
			C140.543,166.309,140.229,166.019,139.728,165.906z M142.685,144.773c-0.073-0.419-0.217-0.798-0.432-1.139
			s-0.499-0.635-0.852-0.883c-0.353-0.248-0.752-0.422-1.197-0.523c-0.445-0.101-0.875-0.114-1.294-0.041
			c-0.418,0.073-0.801,0.216-1.149,0.43c-0.347,0.214-0.648,0.492-0.901,0.837c-0.253,0.344-0.43,0.738-0.531,1.183
			c-0.097,0.43-0.107,0.859-0.028,1.286c0.079,0.426,0.229,0.811,0.451,1.153c0.222,0.342,0.505,0.64,0.849,0.894
			c0.345,0.254,0.739,0.43,1.183,0.531c0.445,0.101,0.88,0.112,1.307,0.033c0.427-0.079,0.811-0.225,1.152-0.44
			c0.341-0.215,0.635-0.499,0.883-0.852c0.248-0.353,0.42-0.745,0.518-1.175C142.745,145.622,142.758,145.191,142.685,144.773z"/>
		<path id="Question_Mark_00000013878264693133164430000011992040495045093262_" style="fill:#EBEBEB;" d="M447.99,81.166
			c-0.22-0.344-0.502-0.643-0.845-0.898c-0.344-0.255-0.736-0.434-1.181-0.537c-0.444-0.103-0.88-0.116-1.307-0.04
			c-0.427,0.076-0.812,0.221-1.154,0.435c-0.342,0.213-0.638,0.496-0.887,0.847c-0.249,0.352-0.424,0.743-0.524,1.173
			c-0.103,0.445-0.119,0.875-0.048,1.294c0.071,0.419,0.213,0.799,0.426,1.141c0.213,0.342,0.496,0.638,0.847,0.887
			c0.352,0.249,0.75,0.426,1.194,0.529c0.444,0.103,0.875,0.118,1.294,0.047c0.418-0.071,0.802-0.212,1.151-0.424
			c0.348-0.212,0.65-0.489,0.905-0.832c0.255-0.343,0.434-0.736,0.537-1.181c0.1-0.43,0.111-0.859,0.035-1.286
			C448.358,81.895,448.209,81.51,447.99,81.166z M458.524,63.678c-0.186-0.964-0.561-1.837-1.126-2.619
			c-0.564-0.781-1.305-1.454-2.219-2.017c-0.915-0.563-1.976-0.984-3.184-1.264c-0.888-0.206-1.733-0.317-2.532-0.334
			c-0.8-0.017-1.559,0.037-2.275,0.164c-0.716,0.127-1.399,0.312-2.048,0.556c-0.648,0.245-1.258,0.52-1.826,0.827l0.856,2.458
			c0.125,0.468,0.438,0.759,0.938,0.875c0.209,0.048,0.464,0.016,0.768-0.096c0.304-0.112,0.672-0.232,1.103-0.358
			c0.431-0.127,0.941-0.213,1.53-0.26c0.588-0.046,1.278,0.022,2.069,0.205c0.541,0.125,1.026,0.318,1.456,0.578
			c0.429,0.261,0.778,0.572,1.045,0.933c0.267,0.361,0.448,0.762,0.544,1.201c0.096,0.439,0.086,0.908-0.03,1.408
			c-0.18,0.777-0.498,1.409-0.955,1.896c-0.456,0.486-0.98,0.899-1.57,1.237c-0.59,0.339-1.208,0.635-1.85,0.888
			c-0.644,0.253-1.239,0.532-1.784,0.837c-0.546,0.305-1.012,0.672-1.396,1.102c-0.385,0.43-0.611,0.981-0.679,1.652l-0.433,3.475
			l3.518,0.815l1.183-2.929c0.173-0.427,0.477-0.778,0.912-1.05c0.436-0.272,0.939-0.535,1.511-0.79
			c0.571-0.255,1.178-0.528,1.823-0.817c0.645-0.289,1.262-0.665,1.853-1.128c0.589-0.463,1.126-1.044,1.61-1.743
			c0.484-0.699,0.848-1.577,1.092-2.632C458.677,65.665,458.709,64.642,458.524,63.678z"/>
		<path id="Question_Mark_00000134237756912736585250000005585701886330914982_" style="fill:#EBEBEB;" d="M85.071,169.051
			c-0.578-1.323-1.448-2.542-2.607-3.656c-1.16-1.114-2.58-2.068-4.259-2.861c-1.235-0.583-2.435-1.014-3.6-1.293
			c-1.165-0.279-2.293-0.44-3.382-0.483c-1.089-0.041-2.146,0.012-3.174,0.164c-1.027,0.152-2.006,0.362-2.935,0.631l0.473,3.869
			c0.035,0.725,0.401,1.25,1.095,1.578c0.29,0.137,0.674,0.172,1.154,0.103c0.481-0.067,1.057-0.126,1.728-0.174
			c0.672-0.049,1.445-0.013,2.322,0.106c0.876,0.119,1.864,0.438,2.963,0.957c0.752,0.355,1.401,0.791,1.947,1.309
			c0.546,0.518,0.957,1.084,1.234,1.698c0.276,0.614,0.414,1.257,0.415,1.93c0.002,0.673-0.162,1.356-0.491,2.051
			c-0.51,1.08-1.176,1.904-1.999,2.472c-0.822,0.567-1.72,1.005-2.69,1.312c-0.971,0.309-1.969,0.545-2.99,0.712
			c-1.023,0.166-1.981,0.386-2.876,0.659c-0.896,0.272-1.694,0.663-2.393,1.17c-0.699,0.507-1.206,1.241-1.518,2.202l-1.736,4.949
			l4.891,2.31l2.66-3.911c0.388-0.571,0.944-0.987,1.668-1.247c0.724-0.259,1.545-0.485,2.462-0.677
			c0.916-0.192,1.892-0.398,2.927-0.617c1.035-0.219,2.058-0.573,3.069-1.063c1.009-0.49,1.979-1.171,2.909-2.041
			c0.93-0.87,1.741-2.038,2.433-3.505c0.71-1.504,1.083-2.992,1.118-4.462C85.923,171.771,85.651,170.374,85.071,169.051z
			 M63.97,193.91c-0.422-0.483-0.94-0.869-1.557-1.16c-0.617-0.292-1.251-0.449-1.9-0.473c-0.65-0.024-1.258,0.066-1.827,0.27
			c-0.568,0.204-1.09,0.523-1.567,0.958c-0.477,0.436-0.856,0.953-1.139,1.55c-0.292,0.618-0.452,1.243-0.481,1.878
			c-0.029,0.636,0.058,1.237,0.262,1.805c0.204,0.568,0.523,1.091,0.959,1.567c0.436,0.477,0.962,0.861,1.579,1.153
			c0.617,0.292,1.243,0.451,1.879,0.48c0.635,0.029,1.242-0.056,1.82-0.255c0.577-0.199,1.107-0.509,1.589-0.931
			c0.482-0.421,0.868-0.939,1.16-1.557c0.282-0.597,0.435-1.222,0.459-1.871c0.023-0.649-0.072-1.26-0.284-1.832
			C64.708,194.92,64.391,194.392,63.97,193.91z"/>
		<path id="Question_Mark_00000029017389301098442030000012288329099969086103_" style="fill:#EBEBEB;" d="M150.527,45.72
			c-0.705-1.373-1.714-2.617-3.026-3.729c-1.313-1.113-2.891-2.036-4.735-2.771c-1.357-0.541-2.666-0.921-3.929-1.141
			c-1.262-0.221-2.477-0.318-3.641-0.291c-1.165,0.028-2.29,0.156-3.377,0.386c-1.086,0.231-2.117,0.519-3.091,0.868l0.762,4.098
			c0.086,0.771,0.51,1.308,1.274,1.612c0.319,0.127,0.731,0.138,1.239,0.033c0.509-0.104,1.119-0.204,1.833-0.3
			c0.714-0.097,1.542-0.11,2.486-0.041c0.942,0.069,2.018,0.344,3.226,0.825c0.826,0.329,1.548,0.752,2.165,1.268
			c0.617,0.517,1.094,1.093,1.429,1.73c0.336,0.637,0.526,1.314,0.571,2.032c0.047,0.718-0.084,1.458-0.387,2.221
			c-0.473,1.187-1.129,2.11-1.969,2.771c-0.84,0.66-1.769,1.186-2.784,1.579c-1.016,0.394-2.065,0.713-3.144,0.958
			c-1.08,0.245-2.089,0.543-3.026,0.894c-0.938,0.35-1.764,0.82-2.477,1.408c-0.713,0.588-1.205,1.405-1.474,2.451l-1.525,5.397
			l5.373,2.141l2.58-4.351c0.377-0.635,0.942-1.117,1.698-1.441c0.755-0.325,1.616-0.62,2.583-0.886
			c0.965-0.266,1.993-0.551,3.083-0.853c1.09-0.302,2.159-0.748,3.205-1.339c1.045-0.59,2.035-1.381,2.97-2.371
			c0.935-0.99,1.723-2.291,2.365-3.902c0.659-1.653,0.957-3.265,0.897-4.836C151.616,48.566,151.233,47.094,150.527,45.72z
			 M129.653,73.653c-0.483-0.487-1.061-0.865-1.739-1.135c-0.678-0.27-1.365-0.397-2.06-0.379c-0.695,0.018-1.339,0.154-1.932,0.409
			c-0.593,0.255-1.129,0.631-1.609,1.127c-0.48,0.497-0.851,1.074-1.113,1.73c-0.271,0.679-0.4,1.357-0.389,2.037
			c0.011,0.68,0.144,1.316,0.399,1.909c0.255,0.593,0.631,1.129,1.127,1.609c0.497,0.48,1.084,0.856,1.762,1.126
			c0.678,0.27,1.356,0.399,2.037,0.388c0.68-0.011,1.321-0.142,1.925-0.393c0.602-0.251,1.148-0.617,1.634-1.099
			c0.487-0.481,0.865-1.06,1.135-1.739c0.262-0.656,0.384-1.333,0.366-2.028c-0.018-0.694-0.16-1.34-0.425-1.937
			C130.508,74.681,130.135,74.139,129.653,73.653z"/>
		<path id="Question_Mark_00000109744512537492414390000003170178590702557321_" style="fill:#EBEBEB;" d="M89.344,117.871
			c-0.344-0.501-0.755-0.908-1.233-1.22c-0.479-0.312-1.011-0.532-1.596-0.66c-0.586-0.128-1.19-0.13-1.817-0.006
			c-0.626,0.124-1.19,0.358-1.692,0.702c-0.501,0.344-0.909,0.75-1.223,1.219c-0.314,0.469-0.529,1-0.645,1.592
			c-0.116,0.593-0.114,1.193,0.007,1.799c0.124,0.627,0.352,1.186,0.684,1.68c0.332,0.494,0.732,0.898,1.201,1.212
			c0.469,0.314,1,0.529,1.593,0.645c0.593,0.116,1.202,0.113,1.829-0.012c0.626-0.124,1.185-0.353,1.68-0.684
			c0.493-0.332,0.902-0.733,1.226-1.204c0.323-0.471,0.549-0.999,0.677-1.584c0.128-0.585,0.13-1.189,0.006-1.817
			C89.92,118.927,89.687,118.372,89.344,117.871z M93.135,92.234c-0.303-1.526-0.851-2.851-1.642-3.976
			c-0.793-1.124-1.774-2.022-2.946-2.695c-1.171-0.673-2.503-1.105-3.994-1.298c-1.493-0.192-3.09-0.119-4.794,0.219
			c-1.253,0.249-2.395,0.593-3.426,1.031c-1.031,0.438-1.969,0.945-2.811,1.519c-0.842,0.575-1.607,1.203-2.295,1.889
			c-0.687,0.686-1.306,1.388-1.855,2.107l2.508,2.645c0.43,0.525,0.997,0.717,1.701,0.577c0.294-0.059,0.602-0.246,0.925-0.565
			c0.324-0.318,0.724-0.683,1.202-1.092c0.478-0.41,1.079-0.814,1.804-1.213c0.724-0.398,1.645-0.708,2.76-0.929
			c0.763-0.151,1.494-0.185,2.192-0.1c0.698,0.086,1.323,0.282,1.872,0.59c0.549,0.308,1.011,0.714,1.385,1.22
			c0.376,0.505,0.632,1.11,0.772,1.814c0.218,1.096,0.175,2.086-0.127,2.97c-0.302,0.884-0.734,1.712-1.292,2.483
			c-0.558,0.772-1.177,1.505-1.852,2.199c-0.676,0.694-1.275,1.392-1.796,2.096c-0.522,0.703-0.905,1.441-1.148,2.211
			c-0.243,0.77-0.216,1.604,0.084,2.5l1.448,4.686l4.962-0.985l-0.176-4.42c-0.026-0.645,0.16-1.268,0.56-1.866
			c0.4-0.598,0.891-1.224,1.474-1.879c0.581-0.654,1.201-1.352,1.857-2.092c0.656-0.741,1.228-1.576,1.716-2.507
			c0.486-0.93,0.837-1.981,1.052-3.153C93.471,95.051,93.43,93.722,93.135,92.234z"/>
		<path id="Question_Mark_00000119085124603730952110000001952652565133427607_" style="fill:#EBEBEB;" d="M37.015,141.24
			c-0.229-0.053-0.51-0.018-0.844,0.106c-0.334,0.123-0.738,0.255-1.212,0.394c-0.474,0.139-1.034,0.234-1.682,0.285
			c-0.646,0.051-1.405-0.024-2.274-0.226c-0.595-0.138-1.128-0.35-1.6-0.636c-0.472-0.287-0.855-0.628-1.149-1.026
			c-0.294-0.397-0.493-0.837-0.597-1.32c-0.106-0.482-0.094-0.998,0.033-1.547c0.198-0.854,0.548-1.548,1.049-2.084
			c0.501-0.535,1.077-0.988,1.726-1.36c0.648-0.372,1.327-0.697,2.034-0.975c0.708-0.278,1.361-0.585,1.961-0.92
			c0.6-0.335,1.112-0.739,1.535-1.211c0.423-0.473,0.672-1.078,0.746-1.816l0.475-3.819l-3.867-0.896l-1.3,3.219
			c-0.19,0.47-0.524,0.855-1.003,1.154c-0.479,0.299-1.032,0.588-1.661,0.869c-0.627,0.28-1.295,0.58-2.003,0.898
			c-0.708,0.318-1.387,0.731-2.036,1.24c-0.648,0.508-1.238,1.148-1.769,1.916c-0.532,0.769-0.932,1.733-1.2,2.892
			c-0.276,1.189-0.311,2.314-0.108,3.374c0.205,1.06,0.617,2.019,1.238,2.878c0.62,0.859,1.434,1.598,2.439,2.217
			c1.006,0.619,2.172,1.082,3.5,1.39c0.976,0.226,1.904,0.348,2.783,0.368s1.714-0.041,2.501-0.18
			c0.787-0.14,1.537-0.343,2.251-0.611c0.713-0.269,1.382-0.572,2.007-0.909l-0.941-2.701
			C37.908,141.687,37.564,141.367,37.015,141.24z M40.38,118.031c-0.078-0.46-0.234-0.878-0.469-1.254
			c-0.234-0.376-0.545-0.701-0.931-0.975c-0.387-0.274-0.824-0.468-1.312-0.581c-0.488-0.113-0.961-0.13-1.422-0.052
			c-0.46,0.078-0.882,0.233-1.265,0.466c-0.383,0.233-0.715,0.537-0.995,0.915c-0.28,0.377-0.477,0.809-0.59,1.298
			c-0.11,0.472-0.122,0.944-0.038,1.414c0.084,0.469,0.247,0.893,0.489,1.27c0.242,0.378,0.552,0.707,0.929,0.987
			c0.378,0.28,0.809,0.477,1.298,0.59c0.488,0.113,0.967,0.128,1.436,0.043c0.47-0.084,0.892-0.243,1.268-0.478
			c0.376-0.234,0.701-0.545,0.975-0.931c0.274-0.386,0.466-0.816,0.576-1.289C40.44,118.964,40.458,118.491,40.38,118.031z"/>
		<path id="Question_Mark_00000055671470663949886500000008811679794322831245_" style="fill:#EBEBEB;" d="M55.332,59.255
			c-0.209-0.048-0.464-0.017-0.768,0.096c-0.304,0.112-0.672,0.232-1.103,0.358c-0.431,0.127-0.941,0.213-1.53,0.26
			c-0.588,0.046-1.278-0.022-2.069-0.205c-0.541-0.125-1.026-0.318-1.456-0.578c-0.429-0.261-0.778-0.572-1.045-0.933
			c-0.267-0.361-0.448-0.762-0.544-1.201c-0.096-0.439-0.086-0.908,0.03-1.407c0.18-0.777,0.498-1.409,0.955-1.896
			c0.456-0.486,0.98-0.899,1.57-1.237c0.59-0.339,1.208-0.635,1.85-0.888c0.644-0.253,1.239-0.532,1.784-0.837
			c0.546-0.305,1.012-0.673,1.396-1.102c0.385-0.43,0.611-0.981,0.679-1.652l0.432-3.475l-3.519-0.815l-1.182,2.929
			c-0.173,0.428-0.477,0.778-0.912,1.05c-0.435,0.272-0.939,0.535-1.511,0.79c-0.571,0.255-1.178,0.528-1.823,0.817
			c-0.644,0.29-1.262,0.665-1.852,1.128c-0.589,0.463-1.126,1.044-1.61,1.743c-0.484,0.699-0.848,1.577-1.092,2.632
			c-0.251,1.082-0.283,2.106-0.098,3.07c0.186,0.964,0.561,1.837,1.127,2.619c0.564,0.781,1.305,1.454,2.219,2.017
			c0.915,0.563,1.976,0.985,3.184,1.264c0.888,0.206,1.733,0.317,2.533,0.334c0.8,0.017,1.559-0.037,2.275-0.164
			c0.716-0.127,1.399-0.312,2.048-0.556c0.648-0.245,1.258-0.52,1.826-0.827L56.27,60.13C56.145,59.662,55.832,59.371,55.332,59.255
			z M58.394,38.138c-0.071-0.419-0.213-0.799-0.426-1.141c-0.213-0.342-0.496-0.638-0.848-0.887c-0.352-0.25-0.75-0.426-1.194-0.529
			c-0.444-0.103-0.875-0.118-1.294-0.047c-0.418,0.071-0.802,0.212-1.151,0.424c-0.348,0.212-0.65,0.489-0.905,0.832
			c-0.255,0.343-0.434,0.736-0.537,1.181c-0.1,0.43-0.111,0.859-0.035,1.286c0.077,0.427,0.225,0.812,0.445,1.156
			c0.221,0.344,0.502,0.643,0.845,0.898c0.344,0.255,0.736,0.434,1.181,0.537c0.444,0.103,0.88,0.116,1.307,0.04
			c0.427-0.076,0.812-0.221,1.154-0.435s0.638-0.496,0.887-0.847c0.249-0.352,0.424-0.743,0.524-1.173
			C58.449,38.987,58.465,38.556,58.394,38.138z"/>
	</g>
</g>
<g id="Lines">
	<g>
		<g>
			<path style="fill:#E0E0E0;" d="M275.054,173.258c-34.162,0-61.954-27.814-61.954-62.002c0-34.188,27.792-62.001,61.953-62.001
				c34.164,0,61.958,27.813,61.958,62C337.012,145.443,309.218,173.258,275.054,173.258z M275.054,50.218
				c-33.63,0-60.99,27.382-60.99,61.037c0,33.657,27.361,61.039,60.991,61.039c33.632,0,60.994-27.382,60.994-61.04
				C336.049,77.599,308.686,50.218,275.054,50.218z"/>
		</g>
		<g>
			<path style="fill:#E0E0E0;" d="M251.66,177.139c-34.325,0-62.252-27.948-62.252-62.3c0-34.352,27.926-62.3,62.252-62.3
				c34.326,0,62.253,27.947,62.253,62.3C313.912,149.192,285.986,177.139,251.66,177.139z M251.66,53.503
				c-33.795,0-61.289,27.515-61.289,61.336c0,33.821,27.494,61.336,61.289,61.336c33.796,0,61.29-27.515,61.29-61.336
				C312.95,81.018,285.456,53.503,251.66,53.503z"/>
		</g>
		<g>
			<path style="fill:#E0E0E0;" d="M225.241,178.674c-34.326,0-62.253-27.948-62.253-62.299c0-34.352,27.926-62.3,62.253-62.3
				s62.253,27.947,62.253,62.3C287.494,150.727,259.567,178.674,225.241,178.674z M225.241,55.039
				c-33.796,0-61.29,27.515-61.29,61.336c0,33.821,27.494,61.336,61.29,61.336c33.796,0,61.29-27.515,61.29-61.336
				C286.531,82.554,259.037,55.039,225.241,55.039z"/>
		</g>
		<g>
			<path style="fill:#E0E0E0;" d="M269.806,153.781c-34.325,0-62.252-27.948-62.252-62.301c0-34.352,27.926-62.3,62.252-62.3
				c34.326,0,62.253,27.948,62.253,62.3C332.059,125.833,304.133,153.781,269.806,153.781z M269.806,30.144
				c-33.795,0-61.289,27.515-61.289,61.336s27.494,61.337,61.289,61.337c33.796,0,61.29-27.516,61.29-61.337
				S303.602,30.144,269.806,30.144z"/>
		</g>
		<g>
			<path style="fill:#E0E0E0;" d="M259.865,157.775c-34.326,0-62.253-27.947-62.253-62.299c0-34.352,27.926-62.3,62.253-62.3
				s62.253,27.947,62.253,62.3C322.118,129.827,294.191,157.775,259.865,157.775z M259.865,34.139
				c-33.796,0-61.29,27.515-61.29,61.336c0,33.82,27.494,61.335,61.29,61.335c33.796,0,61.29-27.515,61.29-61.335
				C321.155,61.654,293.661,34.139,259.865,34.139z"/>
		</g>
		<g>
			<path style="fill:#E0E0E0;" d="M259.865,153.002c-20.181,0-36.599-16.43-36.599-36.626c0-20.195,16.419-36.626,36.599-36.626
				c20.178,0,36.595,16.43,36.595,36.626C296.461,136.572,280.044,153.002,259.865,153.002z M259.865,80.714
				c-19.65,0-35.637,15.998-35.637,35.662c0,19.664,15.986,35.663,35.637,35.663c19.648,0,35.633-15.999,35.633-35.663
				C295.498,96.711,279.513,80.714,259.865,80.714z"/>
		</g>
		<g>
			<path style="fill:#E0E0E0;" d="M238.85,126.511c-18.243,0-33.085-14.855-33.085-33.114c0-18.258,14.842-33.112,33.085-33.112
				c18.245,0,33.089,14.854,33.089,33.112C271.939,111.656,257.095,126.511,238.85,126.511z M238.85,61.249
				c-17.713,0-32.122,14.422-32.122,32.148c0,17.728,14.41,32.15,32.122,32.15c17.714,0,32.126-14.422,32.126-32.15
				C270.976,75.67,256.565,61.249,238.85,61.249z"/>
		</g>
		<g>
			<path style="fill:#E0E0E0;" d="M247.631,131.211c-18.243,0-33.085-14.854-33.085-33.112c0-18.259,14.842-33.114,33.085-33.114
				c18.245,0,33.088,14.855,33.088,33.114C280.719,116.357,265.875,131.211,247.631,131.211z M247.631,65.949
				c-17.713,0-32.123,14.422-32.123,32.15c0,17.727,14.41,32.149,32.123,32.149c17.714,0,32.126-14.422,32.126-32.149
				C279.756,80.371,265.345,65.949,247.631,65.949z"/>
		</g>
		<g>
			<path style="fill:#E0E0E0;" d="M227.527,113.564c-18.243,0-33.084-14.853-33.084-33.111c0-18.259,14.842-33.114,33.084-33.114
				c18.245,0,33.088,14.855,33.088,33.114C260.615,98.711,245.771,113.564,227.527,113.564z M227.527,48.303
				c-17.712,0-32.122,14.422-32.122,32.15c0,17.726,14.41,32.148,32.122,32.148c17.714,0,32.126-14.421,32.126-32.148
				C259.652,62.725,245.241,48.303,227.527,48.303z"/>
		</g>
		<g>
			<path style="fill:#E0E0E0;" d="M240.695,114.155c-17.281,0-31.341-14.068-31.341-31.36c0-17.294,14.059-31.363,31.341-31.363
				c17.279,0,31.337,14.069,31.337,31.363C272.032,100.086,257.974,114.155,240.695,114.155z M240.695,52.395
				c-16.75,0-30.378,13.637-30.378,30.399c0,16.761,13.628,30.397,30.378,30.397c16.749,0,30.374-13.636,30.374-30.397
				C271.069,66.032,257.444,52.395,240.695,52.395z"/>
		</g>
		<g>
			<path style="fill:#E0E0E0;" d="M273.212,118.614c-20.181,0-36.599-16.429-36.599-36.625s16.418-36.625,36.599-36.625
				c20.181,0,36.6,16.429,36.6,36.625S293.393,118.614,273.212,118.614z M273.212,46.328c-19.65,0-35.636,15.998-35.636,35.661
				s15.986,35.661,35.636,35.661c19.65,0,35.637-15.998,35.637-35.661S292.863,46.328,273.212,46.328z"/>
		</g>
		<g>
			<path style="fill:#E0E0E0;" d="M247.631,145.094c-34.326,0-62.253-27.947-62.253-62.3c0-34.353,27.926-62.301,62.253-62.301
				c34.328,0,62.256,27.948,62.256,62.301C309.887,117.146,281.958,145.094,247.631,145.094z M247.631,21.456
				c-33.796,0-61.29,27.516-61.29,61.338c0,33.821,27.494,61.336,61.29,61.336c33.797,0,61.293-27.515,61.293-61.336
				C308.924,48.972,281.428,21.456,247.631,21.456z"/>
		</g>
		<g>
			<path style="fill:#E0E0E0;" d="M225.241,153.781C225.239,153.781,225.244,153.781,225.241,153.781
				c-16.602,0.001-32.227-6.487-43.999-18.268c-11.771-11.78-18.254-27.418-18.254-44.033c0-34.352,27.926-62.3,62.253-62.3
				s62.253,27.948,62.253,62.3C287.494,125.831,259.565,153.778,225.241,153.781L225.241,153.781z M225.241,30.144
				c-33.796,0-61.29,27.515-61.29,61.336c0,16.357,6.383,31.754,17.972,43.352c11.59,11.598,26.974,17.985,43.318,17.985l0,0
				c33.796,0,61.29-27.516,61.29-61.337S259.037,30.144,225.241,30.144z"/>
		</g>
	</g>
</g>
<g id="Character">
	<g id="Character_00000008839123697555849140000017603838888119060403_">
		<g id="Bottom_00000093174087503177758040000010376035962017849989_">
			<g>
				<path style="fill:#FFA8A7;" d="M285.112,359.121c-0.996-1.844-2.507-4.316-2.237-9.26c0.026-0.481-0.048-7.24,0.427-16.262
					l-19.167-0.257c1.738,9.975,3.443,18.798,3.502,20.133c-0.03,0.093,0.138,0.252,0.159,0.837
					c0.138,4.702,5.774,7.102,10.199,10.13c1.748,1.196,6.834,4.73,11.939,7.022c3.196,1.434,9.611,1.415,10.355-0.54
					C294.903,367.207,287.966,364.406,285.112,359.121z"/>
				<g>
					<path style="fill:#263238;" d="M309.434,375.764c0.271-0.007,0.753,2.83-0.689,4.077c-1.664,1.438-6.596,3.854-13.21,3.202
						c-6.614-0.652-10.234-2.508-12.925-4.547c-2.692-2.039-6.465-4.916-9.464-5.47c-2.785-0.514-5.824-1.637-6.732-2.431
						c-0.907-0.794-0.876-4.424-0.876-4.424L309.434,375.764z"/>
					<path id="XMLID_00000030481832820806513150000008355095108309273006_" style="fill:#37474F;" d="M267.48,352.149
						c-0.001,0-0.497,0.028-0.646,0.871c-0.177,1.004-0.323,3.917-0.717,5.568c-0.547,2.295-0.834,6.978-0.423,8.828
						c0.41,1.849,4.96,3.031,7.873,4.007c2.975,0.998,6.441,3.119,9.494,5.398c3.16,2.358,9.74,4.641,14.039,4.596
						c6.563-0.069,10.768-1.868,12.023-4.146c1.725-3.132-0.865-5.902-3.473-7.373c-5.587-3.151-11.866-5.148-16.916-9.206
						c-0.926-0.744-1.674-1.287-2.205-2.4c-0.535-1.122-0.789-2.359-0.992-3.578c-0.043-0.261-0.088-0.53-0.228-0.755
						c-0.309-0.497-0.965-0.623-1.545-0.701c-1.441-0.194-2.895-0.383-4.345-0.28c-1.45,0.103-3.161,0.52-4.22,1.587
						c-0.94,0.947-0.651,2.647-1.407,3.766c-0.172,0.254-0.423,0.5-0.73,0.491c-0.283-0.009-0.509-0.233-0.68-0.458
						c-0.52-0.685-0.816-1.511-1.26-2.247c-0.524-0.87-1.33-1.359-2.147-1.918c-0.453-0.31-0.855-0.534-1.143-1.017
						C267.788,353.112,267.433,352.151,267.48,352.149z"/>
					<path style="fill:#FAFAFA;" d="M302.597,368.301c-8.251-0.694-13.654,7.89-13.969,11.358c2.374,1.102,6.505,1.778,8.47,1.758
						c6.563-0.069,11.038-1.872,12.292-4.15C310.855,374.608,309.393,370.572,302.597,368.301z"/>
					<g>
						<g>
							<path style="fill:#F0F0F0;" d="M290.609,370.05c-0.103,0.003-0.208-0.027-0.296-0.093c-0.203-0.15-0.238-0.427-0.081-0.62
								c1.283-1.575,5.044-3.71,8.505-3.436c0.256,0.02,0.446,0.234,0.424,0.477c-0.021,0.242-0.239,0.424-0.501,0.404
								c-3.23-0.246-6.679,1.848-7.697,3.097C290.876,369.988,290.745,370.047,290.609,370.05z"/>
						</g>
						<g>
							<path style="fill:#F0F0F0;" d="M286.461,367.879c-0.103,0.003-0.208-0.027-0.296-0.092c-0.202-0.149-0.238-0.427-0.081-0.62
								c1.284-1.576,5.047-3.716,8.505-3.436c0.256,0.019,0.446,0.234,0.424,0.477c-0.021,0.242-0.235,0.423-0.501,0.404
								c-3.23-0.251-6.679,1.848-7.696,3.097C286.728,367.817,286.596,367.876,286.461,367.879z"/>
						</g>
						<g>
							<path style="fill:#F0F0F0;" d="M282.605,365.378c-0.104,0.003-0.208-0.028-0.297-0.093c-0.202-0.149-0.238-0.427-0.081-0.62
								c1.283-1.576,5.06-3.712,8.506-3.435c0.256,0.019,0.446,0.234,0.424,0.477c-0.021,0.243-0.236,0.422-0.501,0.404
								c-3.226-0.248-6.679,1.848-7.696,3.097C282.872,365.316,282.74,365.375,282.605,365.378z"/>
						</g>
						<g>
							<path style="fill:#F0F0F0;" d="M278.826,362.875c-0.101,0.002-0.204-0.026-0.29-0.089c-0.205-0.146-0.245-0.424-0.091-0.619
								c1.763-2.233,5.838-3.774,9.295-3.5c0.256,0.02,0.446,0.234,0.424,0.477c-0.021,0.243-0.238,0.417-0.501,0.405
								c-3.113-0.246-6.912,1.17-8.478,3.149C279.097,362.812,278.962,362.872,278.826,362.875z"/>
						</g>
					</g>
				</g>
			</g>
			<g>
				<path style="fill:#FFA8A7;" d="M211.216,331.189c-0.295,10.753-0.708,21.77-1.421,27.519
					c-0.295,2.378-2.887,18.396-2.698,23.405c0.286,7.524,10.26,7.879,11.416,3.567c1.157-4.312,4.358-23.228,4.684-25.154
					c1.022-7.13,4.933-15.874,8.462-28.87L211.216,331.189z"/>
				<g>
					<path style="fill:#263238;" d="M221.485,389.223c-0.47,4.33-1.314,7.176-3.052,9.647c-1.737,2.471-4.826,3.126-7.881,2.235
						c-3.055-0.892-6.919-3.072-7.628-6.86c-0.709-3.788-1.104-6.38-0.212-10.374L221.485,389.223z"/>
					<path id="XMLID_00000134217679604503956500000009180123586985178278_" style="fill:#37474F;" d="M209.978,357.162
						c-1.278,0.035-1.928,5.848-2.938,11.652c-1.082,6.221-3.165,8.717-4.111,13.815c-1.08,5.824-0.185,8.491,1.804,12.138
						c1.988,3.647,9.457,7.483,13.458,2.585c3.261-3.994,3.605-8.577,3.602-14.444c-0.004-6.065,0.633-10.234,1.11-14.814
						c0.455-4.378,1.684-8.756,0.601-9.296c-0.115,0.641-0.237,1.455-0.357,2.083c-0.148,0.774-0.189,1.591-0.521,2.321
						c-0.145,0.32-0.445,0.649-0.536,0.113c-0.061-0.364-0.006-0.734,0.052-1.092c0.262-1.608-0.587-1.78-1.042-1.927
						c-0.988-0.319-4.918-0.969-5.869-1.076c-0.97-0.109-4.321-0.407-4.782,0.1c-0.312,0.343-0.382,0.939-0.508,1.675
						c-0.15,0.877-0.395,1.513-0.408,1.235c-0.031-0.634,0.175-2.271,0.21-2.667c0.034-0.379,0.123-0.895,0.147-1.277
						C209.912,357.911,209.933,357.536,209.978,357.162z"/>
					<path style="fill:#FAFAFA;" d="M202.416,386.009c-0.391,3.63,0.404,6.166,1.961,9.02c1.988,3.647,10.071,7.524,14.072,2.625
						c1.991-2.437,2.633-5.4,3.034-8.435C219.413,385.201,206.129,382.846,202.416,386.009z"/>
					<g>
						<g>
							<path style="fill:#F0F0F0;" d="M219.006,382.715c-0.053-0.008-0.105-0.023-0.155-0.049c-0.05-0.026-5.832-2.625-11.626-1.631
								c-0.256,0.04-0.502-0.12-0.551-0.364c-0.047-0.245,0.124-0.479,0.38-0.523c6.128-1.047,12.023,1.614,12.243,1.725
								c0.23,0.119,0.317,0.392,0.194,0.611C219.395,382.655,219.198,382.742,219.006,382.715z"/>
						</g>
						<g>
							<path style="fill:#F0F0F0;" d="M207.716,376.68c-0.177-0.026-0.333-0.147-0.386-0.322c-0.072-0.24,0.072-0.489,0.322-0.558
								c5.795-1.573,12,1.491,12.232,1.622c0.226,0.126,0.303,0.401,0.17,0.616c-0.132,0.213-0.425,0.28-0.646,0.159
								c-0.052-0.029-6.1-3-11.492-1.53C207.849,376.686,207.782,376.689,207.716,376.68z"/>
						</g>
						<g>
							<path style="fill:#F0F0F0;" d="M208.111,372.569c-0.174-0.025-0.327-0.143-0.383-0.314c-0.077-0.239,0.062-0.49,0.311-0.562
								c6.379-1.846,12.25,1.459,12.467,1.598c0.217,0.14,0.275,0.42,0.129,0.625c-0.146,0.206-0.445,0.26-0.656,0.12
								c-0.048-0.032-5.723-3.199-11.661-1.483C208.25,372.575,208.179,372.579,208.111,372.569z"/>
						</g>
						<g>
							<path style="fill:#EBEBEB;" d="M208.615,368.528c-0.171-0.025-0.323-0.14-0.381-0.308c-0.081-0.237,0.055-0.491,0.303-0.566
								c5.982-1.821,12.309,1.581,12.545,1.728c0.22,0.133,0.285,0.413,0.144,0.622c-0.139,0.21-0.431,0.273-0.652,0.134
								c-0.055-0.033-6.191-3.319-11.745-1.627C208.757,368.533,208.685,368.539,208.615,368.528z"/>
						</g>
					</g>
				</g>
			</g>
			<g>
				<g>
					<path style="fill:#37474F;" d="M220.538,187.256c0,0-1.449,13.974-3.205,42.775c-1.701,27.887-1.862,42.646-2.063,46.01
						c-0.2,3.364-2.337,8.819-4.046,25.418c-1.488,14.445-1.016,44.709-1.016,44.709s1.64,3.084,7.534,3.851
						c5.895,0.767,9.295-1.532,9.295-1.532s12.158-39.245,14.799-49.176c2.641-9.932,10.952-49.011,10.952-49.011l5.206,32.263
						c0,0-0.488,9.36,1.086,23.951c1.573,14.591,6.457,36.819,6.457,36.819s4.036,1.731,9.436,1.404
						c6.177-0.374,8.329-3.275,8.329-3.275s1.759-49.035,2.161-65.52c0.402-16.486-0.395-66.488-1.861-87.928L220.538,187.256z"/>
				</g>
				<path style="fill:#263238;" d="M258.592,222.623l-5.849,29.523l5.183,33.204l-1.615-32.331l5.799-27.016
					c4.319-0.876,12.207-3.697,13.603-9.314C268.932,223.123,258.592,222.623,258.592,222.623z"/>
			</g>
		</g>
		<g id="Top_26_">
			<g id="Arm_00000090986662034459238030000000643769081820019635_">
				<g>
					<path style="fill:#FFA8A7;" d="M231.007,81.322c0.23-1.962,0.478-3.923,0.711-5.887c0.098-0.824,0.196-1.656,0.114-2.482
						c-0.082-0.826-0.359-1.657-0.924-2.265c-0.403-0.434-1.15-0.715-1.554-0.283c-0.12,0.129-0.185,0.299-0.246,0.465
						c-1.138,3.077-2.219,6-3.356,9.077c-0.37,0.999-1.04,1.736-1.543,2.675c-0.489,0.914-1.236,2.236-1.553,3.239
						c-0.57,1.801-1.412,3.808-1.674,4.561c-0.734,2.112-1.939,5.268-6.311,8.329c-5.494,3.847-18.551,10.772-28.244,17.815
						c-3.967,2.883-6.816,9.035-8.335,13.661c-2.632,8.011,0.396,11.501,5.987,10.726c4.469-0.619,10.441-2.581,16.218-8.037
						c9.552-9.02,19.295-21.179,24.332-25.385c1.231-1.173,3.552-2.057,4.311-2.888c1.49-1.63,2.053-3.243,2.182-5.446
						c0.129-2.209-0.292-4.403-0.471-6.598c-0.146-1.792-0.408-3.463-0.261-5.268C230.555,85.325,230.772,83.323,231.007,81.322z"/>
					<path style="fill:#F28F8F;" d="M231.832,72.952c-0.082-0.826-0.359-1.657-0.924-2.265c-0.403-0.434-1.15-0.715-1.554-0.283
						c-0.12,0.129-0.184,0.299-0.245,0.465c-1.138,3.077-2.276,6.154-3.414,9.231c-0.013,0.035-0.026,0.069-0.039,0.104
						c0.438,2.977,1.077,5.977,1.047,8.932c-0.03,2.947-0.744,5.36-0.753,8.296c-0.009,3.165,0.18,5.85,0.957,8.558
						c0.85-0.484,1.646-0.923,2.034-1.347c1.489-1.63,2.053-3.243,2.182-5.446c0.129-2.209-0.292-4.403-0.471-6.598
						c-0.147-1.793-0.408-3.463-0.261-5.268c0.163-2.007,0.38-4.009,0.615-6.01c0.231-1.962,0.479-3.923,0.712-5.887
						C231.816,74.611,231.914,73.779,231.832,72.952z"/>
				</g>
			</g>
			<path style="fill:#37474F;" d="M270.918,119.54c4.959-1.054,13.921-1.023,26.103-2.648c9.148-1.22,19.319-2.661,19.319-2.661
				l9.201,11.024l-2.03,6.738c-3.592,2.546-20.409,5.099-31.631,7.651c-4.475,1.018-8.912,4.665-9.322,9.313
				c-0.107,1.212-3.558-0.356-7.891-9.102C272.621,135.723,270.252,125.486,270.918,119.54z"/>
			<g id="Chest_6_">
				<g>
					<path id="XMLID_5023_" style="fill:#FAFAFA;" d="M281.446,145.91c-0.739-19.148-9.28-24.312-12.639-25.661l-13.636-2.57
						c-4.149,0.504-21.784,5.997-26.647,7.255c-3.131,0.81-8.242,2.801-9.72,12.878c-1.201,8.185-1.313,13.752,1.343,28.344
						c2.31,12.693,0.965,19.815-0.907,36.979c16.012,11.932,53.742,9.215,63.337-3.671c0,0-0.359-23.995-0.293-30.606
						C282.349,162.246,281.646,151.093,281.446,145.91z"/>
					<g>
						<g>
							<path style="fill:#BA68C8;" d="M261.095,119.887c1.802,0.876,10.101,8.38,11.56,21.27
								c2.682,23.698,3.321,46.467,3.987,67.024c2.787-1.467,7.574-4.074,8.821-7.825c-0.716-8.082-1.486-27.32-1.814-33.01
								c-0.467-8.104-1.137-21.257-1.786-26.455c-0.863-6.917-5.065-16.691-10.944-21.351c-6.155-0.421-9.631-1.206-9.631-1.206
								L261.095,119.887z"/>
						</g>
					</g>
				</g>
				<g id="Head_10_">
					<path style="fill:#263238;" d="M260.768,110.29c0.829-4.633,5.489-9.435,7.605-13.463c2.04-3.883,3.261-6.899,3.067-10.569
						c-0.115-2.173-1.458-5.13-3.063-5.762c1.935-8.057-4.091-11.858-7.301-12.653c-1.232-0.305-3.265-0.777-4.441-1.281
						c-1.743-0.747-2.126-2.158-3.525-3.368c-2.41-2.084-6.499-2.167-8.085,0.941c-1.597-2.105-3.79-2.07-6.329-1.449
						c-2.42,0.592-3.584,2.629-3.358,4.858c-3.368-1.925-6.497,0.438-6.826,2.427c-0.242,1.466,0.059,2.708-0.913,4.016
						c-1.096,1.473-3.142,1.429-3.753,0.226c-0.369,2.083,0.432,3.681,2.695,3.585c-0.79,1.123-1.006,2.603-0.625,3.977
						c0.517,1.862,2.377,2.971,3.882,3.018c0.23,1.147,0.269,2.196,0.98,3.19c0.683,0.955,1.572,1.904,2.642,2.426
						c3.411,1.663,7.195,2.228,10.878,3.024c1.457,0.315,2.914,0.631,4.371,0.946c0.254,0.055,1.576,0.147,1.731,0.375
						C250.402,94.754,260.768,110.29,260.768,110.29z"/>
					<g id="XMLID_5022_">
						<path style="fill:#FFA8A7;" d="M266.443,104.338c-3.28,1.919-5.186-1.14-5.186-1.14l0.212,17.653
							c0,0,2.964,6.793-0.307,12.213c-4.662-1.393-13.216-3.407-19.927-11.639l-0.219-6.761c0,0-2.266,0.221-4.444-0.104
							c-3.633-0.531-6.663-3.664-7.667-7.613c-1.049-4.127-1.287-10.861-0.349-15.789c0.24-1.259,0.351-2.545,0.231-3.82
							c-0.321-3.387,0.306-5.352,1.205-8.186c4.033-3.191,15.366-3.761,23.954,1.565c-1.889,4.386-0.766,8.874,2.954,10.865
							c-0.187,1.386-0.391,4.89,1.891,4.845c1.643-0.033,1.771-2.092,3.473-3.893c1.737-1.838,5.645-2.254,7.145,0.437
							C271.509,96.734,270.036,102.235,266.443,104.338z"/>
						<path style="fill:#F28F8F;" d="M241.017,114.663c5.777-0.63,11.262-1.255,14.306-5.41c1.909-2.606,3.539-6.811,3.539-6.811
							s-0.635,5.106-2.55,8.552c-1.476,2.656-6.177,4.872-15.233,5.572L241.017,114.663z"/>
					</g>
					<g id="XMLID_5006_">
						<path id="XMLID_5010_" style="fill:#263238;" d="M244.922,91.482c-0.19,1.007,0.553,1.255,1.523,1.435
							c0.97,0.181,1.8,0.226,1.99-0.781c0.19-1.008-0.441-1.971-1.412-2.151C246.053,89.805,245.113,90.475,244.922,91.482z"/>
						<path id="XMLID_5009_" style="fill:#263238;" d="M250.414,87.702l-3.44-2.687c-0.73,0.995-0.551,2.404,0.399,3.145
							C248.322,88.903,249.684,88.697,250.414,87.702z"/>
						<path id="XMLID_5008_" style="fill:#263238;" d="M233.717,84.178l-3.429,2.756c0.731,0.983,2.091,1.163,3.038,0.402
							C234.273,86.575,234.448,85.161,233.717,84.178z"/>
						<path id="XMLID_5007_" style="fill:#263238;" d="M231.696,91.502c0.133,1.016,0.943,1.017,1.921,0.886
							c0.978-0.13,1.753-0.341,1.621-1.358c-0.133-1.016-1.033-1.735-2.011-1.605C232.249,89.556,231.563,90.485,231.696,91.502z"/>
						<path style="fill:#F28F8F;" d="M234.381,97.025l5.628,2.559l1.842-11.064C239.759,87.751,237.011,92.819,234.381,97.025z"/>
						<path style="fill:#B16668;" d="M235.654,83.245c-0.113-0.215-0.259-0.409-0.437-0.574c-0.334-0.31-0.791-0.536-1.256-0.5
							c-0.212,0.016-0.087,0.323,0.064,0.348c0.107,0.018,0.209,0.048,0.313,0.078c0.012,0.004,0.014,0.004,0.018,0.005
							c0.003,0.002,0.005,0.003,0.018,0.008c0.023,0.009,0.046,0.018,0.068,0.028c0.019,0.008,0.037,0.017,0.056,0.026
							c0.007,0.003,0.016,0.008,0.023,0.012c0.074,0.043,0.147,0.087,0.217,0.135c0.007,0.005,0.008,0.005,0.011,0.007
							c0.002,0.002,0.002,0.003,0.01,0.009c0.018,0.016,0.037,0.031,0.055,0.046c0.033,0.029,0.065,0.059,0.096,0.091
							c0.01,0.01,0.02,0.021,0.03,0.031c0.001,0.002,0.028,0.032,0.03,0.035c0.028,0.034,0.055,0.069,0.08,0.105
							c0.023,0.033,0.045,0.067,0.066,0.101c0.004,0.007,0.017,0.031,0.02,0.036c0.009,0.018,0.018,0.035,0.027,0.053
							c0.019,0.039,0.037,0.079,0.053,0.12c0.009,0.022,0.017,0.045,0.025,0.067c0.002,0.005,0.021,0.062,0.013,0.038
							c-0.008-0.025,0.009,0.032,0.01,0.037c0.006,0.023,0.012,0.045,0.016,0.068c0.022,0.1,0.039,0.201,0.079,0.296
							c0.024,0.058,0.071,0.11,0.126,0.149c0.044,0.05,0.134,0.117,0.196,0.061C235.945,83.922,235.79,83.502,235.654,83.245z"/>
						<path style="fill:#B16668;" d="M245.301,83.048c-0.235,0.07-0.432,0.249-0.599,0.424c-0.15,0.157-0.284,0.328-0.4,0.511
							c-0.117,0.185-0.219,0.378-0.294,0.584c-0.039,0.107-0.08,0.222-0.097,0.335c-0.008,0.052-0.007,0.107-0.009,0.16
							c-0.001,0.035-0.006,0.073-0.003,0.108c0.006,0.07,0.044,0.132,0.061,0.199c0.025,0.099,0.207,0.262,0.289,0.124
							c0.042-0.071,0.095-0.13,0.125-0.207c0.024-0.06,0.049-0.12,0.074-0.18c0.04-0.095,0.068-0.195,0.105-0.291
							c0.071-0.182,0.156-0.363,0.256-0.531c0.097-0.16,0.21-0.311,0.336-0.451c0.143-0.16,0.35-0.303,0.447-0.494
							C245.677,83.173,245.449,83.004,245.301,83.048z"/>
					</g>
					<path style="fill:#B16668;" d="M239.838,105.659c0.917,0.623,1.494-0.297,3.12-0.951c1.625-0.654,3.143,0.163,2.943-1.184
						c-0.212-1.423-2.702-2.272-4.327-1.619C239.947,102.559,238.794,104.95,239.838,105.659z"/>
					<path style="fill:#F28F8F;" d="M242.833,104.573c-0.159,0.064-0.3,0.143-0.439,0.223c-0.092-1.068,0.664-2.031,1.737-2.174
						c0.567-0.076,0.97,0.015,1.385,0.345c0.083,0.12,0.17,0.304,0.203,0.44C246.044,104.729,244.459,103.919,242.833,104.573z"/>
				</g>
				<g>
					<g>
						<path style="fill:#BA68C8;" d="M220.039,126.852l6.934-4.513l12.696-1.884c0,0,6.619,6.618,7.716,33.651
							c1.193,29.403,1.416,60.651,1.416,60.651s-22.091,2.949-30.922-9.381c0,0,2.068-11.259,2.078-26.091
							c0.006-8.763-1.572-14.643-2.763-22.104C214.979,143.301,216.114,134.395,220.039,126.852z"/>
					</g>
				</g>
				<path style="fill:#37474F;" d="M245.224,134.869l-1.602-13.492c0,0-2.076-2.314-2.508-3.718l-0.071-2.206
					c0,0-1.365-0.024-1.424,1.575c-0.06,1.599,0.05,3.427,0.05,3.427C241.961,124.145,243.713,129.201,245.224,134.869z"/>
				<path style="fill:#37474F;" d="M269.907,131.159l-2.364-10.885c0,0-3.801-3.982-4.643-4.619c-0.842-0.636-1.504-0.9-1.504-0.9
					l0.073,6.095C261.469,120.851,266.69,125.09,269.907,131.159z"/>
			</g>
			<path style="fill:#37474F;" d="M217.077,156.429c0,0,0.193-5.25-7.55-6.595c-18.18-3.158-29.286-5.931-31.689-11.229
				c1.075,1.986,3.307,2.755,6.244,2.352c4.466-0.621,10.441-2.585,16.214-8.043c2.941-2.779,5.851-5.651,8.131-8.376
				c7.669,0.094,11.906-1.26,18.544-2.199C229.898,132.905,228.745,153,217.077,156.429z"/>
			<g id="Arm_00000121986863607971543320000001028193492833205905_">
				<path style="fill:#F28F8F;" d="M275.534,91.488c-0.68-2.27-0.706-5.574-1.244-7.776c-0.538-2.201-2.17-5.506-2.712-8.29
					c-0.541-2.779-0.954-3.015-1.999-2.661c-0.856,0.291-1.795,2.321-1.035,5.252C269.109,80.191,272.075,90.328,275.534,91.488z"/>
				<path style="fill:#FFA8A7;" d="M267.237,74.875c0.916,1.461,2.394,2.807,3.239,4.313c0.883,1.575,0.907,2.373,1.873,5.542
					c0.751,2.466,0.997,4.732,4.313,7.414c5.937,4.801,25.832,10.183,38.323,18.174c4.763,3.047,7.549,6.011,9.674,11.208
					c2.799,6.846,0.441,11.082-3.873,11.297c-5.196,0.258-14.534-1.341-21.768-6.966c-11.96-9.3-23.346-18.572-29.592-22.843
					c-1.543-1.211-3.599-2.609-4.563-3.48c-1.804-1.629-2.749-4.231-3.26-6.604c-0.846-3.932-2.788-6.783-2.857-8.605
					c-0.487-1.669-1.772-4.209-2.987-6.814c-0.695-1.49-1.407-2.767-0.839-3.629c0.142-0.216,0.476-0.452,0.476-0.452
					s-0.078-0.197-0.105-0.281c-0.178-0.564-0.383-1.126-0.445-1.714c-0.061-0.588-0.069-1.158,0.278-1.637
					c0.193-0.266,0.45-0.396,0.45-0.396s-0.072-0.151-0.161-0.352c-0.243-0.544-0.393-1.138-0.381-1.734
					c0.012-0.596,0.226-1.207,0.675-1.599c0.448-0.392,1.149-0.515,1.658-0.205c0.192,0.117,0.347,0.284,0.499,0.45
					c0.38,0.413,0.76,0.825,1.14,1.238c0.633-0.61,1.123-0.315,1.8,0.147c0.825,0.563,1.55,1.261,2.321,1.896
					c0.355,0.293,0.711,0.588,1.011,0.936c0.265,0.308,0.482,0.653,0.698,0.997C265.616,72.421,266.46,73.636,267.237,74.875z"/>
				<g>
					<path style="fill:#B16668;" d="M264.863,99.534c-2.193-1.784-3.05-4.695-3.643-7.337c-0.559-2.697-2.203-5.11-2.474-7.873
						c0.091,0.687,0.337,1.331,0.61,1.962c0.834,1.902,1.729,3.783,2.256,5.809C262.183,94.766,262.914,97.514,264.863,99.534
						L264.863,99.534z"/>
				</g>
				<g>
					<g>
						<path style="fill:#B16668;" d="M259.004,67.198c0.937,0.94,3.068,2.984,3.94,3.923c1.257,1.375,1.863,3.249,2.711,4.884
							c0,0,0.766,1.687,0.766,1.687c0.134,0.279,0.216,0.587,0.416,0.799c0.198,0.22,0.509,0.319,0.761,0.499
							c-0.271-0.143-0.589-0.198-0.835-0.423c-0.441-0.455-1.051-1.867-1.387-2.424c-0.717-1.359-1.388-2.748-2.145-4.08
							C261.933,70.429,260.259,68.874,259.004,67.198L259.004,67.198z"/>
					</g>
					<g>
						<path style="fill:#B16668;" d="M255.575,69.4c0.271-0.133,0.577-0.261,0.905-0.191c0.332,0.059,0.566,0.357,0.75,0.57
							c0.405,0.452,0.834,0.893,1.253,1.34c0.84,0.895,1.694,1.838,2.246,2.944c1.009,1.89,2.091,3.77,2.798,5.803
							c0.091,0.292,0.194,0.593,0.181,0.904c-0.103-0.603-0.414-1.144-0.681-1.689c-1.484-2.66-2.696-5.483-4.776-7.755
							c-0.391-0.472-0.792-0.933-1.174-1.42c-0.184-0.261-0.335-0.503-0.624-0.592C256.176,69.225,255.863,69.305,255.575,69.4
							L255.575,69.4z"/>
					</g>
					<g>
						<path style="fill:#B16668;" d="M255.397,73.429c0.946-0.434,1.577,0.843,2.072,1.446c1.362,1.801,2.227,3.904,3.137,5.949
							c0.17,0.434,0.237,0.895,0.201,1.344c-0.058-0.915-0.62-1.632-1.025-2.437c-0.428-0.787-0.827-1.588-1.237-2.382
							c-0.384-0.827-0.891-1.539-1.336-2.305C256.765,74.432,256.328,73.176,255.397,73.429L255.397,73.429z"/>
					</g>
				</g>
			</g>
		</g>
	</g>
</g>
</svg>
